<?xml version="1.0" encoding="UTF-8" standalone="no"?>
<!-- Based on https://icons.getbootstrap.com/icons/twitter/ MIT licensed -->
<svg width="16" height="16" viewBox="0 0 16 16" xmlns="http://www.w3.org/2000/svg" version="1.1">
  <circle fill="#1DA1F2" cx="7.999639" cy="7.999639" r="7.9996386" />
  <path fill="#FFFFFF" d="m 5.99251,12.387967 c 4.07565,0 6.305178,-3.3770255 6.305178,-6.3004505 0,-0.0945 0,-0.19035 -0.0042,-0.2848502 A 4.512375,4.512375 0 0 0 13.4,4.6538163 4.49415,4.49415 0 0 1 12.124926,5.0034663 2.228175,2.228175 0 0 0 13.101651,3.7769916 4.409775,4.409775 0 0 1 11.692926,4.3122663 2.21805,2.21805 0 0 0 7.915625,6.3332165 6.294375,6.294375 0 0 1 3.3479,4.0186416 2.220075,2.220075 0 0 0 4.03505,6.9764915 2.243025,2.243025 0 0 1 3.032,6.7010915 v 0.03038 a 2.2194,2.2194 0 0 0 1.7766,2.172148 2.162025,2.162025 0 0 1 -0.583875,0.07763 2.18025,2.18025 0 0 1 -0.41445,-0.03848 A 2.216025,2.216025 0 0 0 5.8805,10.479741 4.4469,4.4469 0 0 1 3.1265,11.42947 4.266,4.266 0 0 1 2.6,11.3991 6.3072,6.3072 0 0 0 5.99255,12.387973 Z" />
</svg>
