<?xml version="1.0" encoding="UTF-8"?>
<svg version="1.1" xmlns="http://www.w3.org/2000/svg" x="0px" y="0px" viewBox="0 0 600 600" xml:space="preserve">
<circle fill="#833AB4" cx="300" cy="300" r="297.5"/>
<path fill="#FFFFFF" d="M300,123.5c-47.9,0-54,0.2-72.8,1.1c-18.8,0.9-31.6,3.8-42.8,8.2c-11.6,4.5-21.5,10.5-31.3,20.4   c-9.8,9.8-15.8,19.7-20.4,31.3c-4.4,11.2-7.4,24.1-8.2,42.8c-0.8,18.8-1.1,24.8-1.1,72.8c0,47.9,0.2,53.9,1.1,72.8   c0.9,18.8,3.8,31.6,8.2,42.8c4.5,11.6,10.5,21.5,20.4,31.3c9.8,9.8,19.7,15.9,31.3,20.4c11.2,4.4,24.1,7.3,42.8,8.2   c18.8,0.9,24.8,1.1,72.8,1.1c47.9,0,53.9-0.2,72.8-1.1c18.8-0.9,31.6-3.8,42.9-8.2c11.6-4.5,21.4-10.6,31.2-20.4   c9.8-9.8,15.8-19.7,20.4-31.3c4.3-11.2,7.3-24,8.2-42.8c0.8-18.8,1.1-24.8,1.1-72.8c0-47.9-0.2-53.9-1.1-72.8   c-0.9-18.8-3.9-31.6-8.2-42.8c-4.5-11.6-10.6-21.5-20.4-31.3c-9.8-9.8-19.6-15.8-31.3-20.4c-11.3-4.4-24.1-7.3-42.9-8.2   C353.9,123.7,347.9,123.5,300,123.5L300,123.5z M284.2,155.3c4.7,0,9.9,0,15.8,0c47.1,0,52.7,0.2,71.3,1   c17.2,0.8,26.5,3.7,32.8,6.1c8.2,3.2,14.1,7,20.3,13.2c6.2,6.2,10,12.1,13.2,20.3c2.4,6.2,5.3,15.6,6.1,32.8   c0.8,18.6,1,24.2,1,71.3c0,47.1-0.2,52.7-1,71.3c-0.8,17.2-3.7,26.5-6.1,32.8c-3.2,8.2-7,14.1-13.2,20.3c-6.2,6.2-12,10-20.3,13.2   c-6.2,2.4-15.6,5.3-32.8,6.1c-18.6,0.8-24.2,1-71.3,1c-47.1,0-52.7-0.2-71.3-1c-17.2-0.8-26.5-3.7-32.8-6.1   c-8.2-3.2-14.1-7-20.3-13.2c-6.2-6.2-10-12.1-13.2-20.3c-2.4-6.2-5.3-15.6-6.1-32.8c-0.8-18.6-1-24.2-1-71.3   c0-47.1,0.2-52.7,1-71.3c0.8-17.2,3.7-26.5,6.1-32.8c3.2-8.2,7-14.1,13.2-20.3c6.2-6.2,12.1-10,20.3-13.2   c6.2-2.4,15.6-5.3,32.8-6.1C245,155.5,251.3,155.3,284.2,155.3L284.2,155.3z M394.2,184.6c-11.7,0-21.2,9.5-21.2,21.2   c0,11.7,9.5,21.2,21.2,21.2c11.7,0,21.2-9.5,21.2-21.2C415.4,194.1,405.9,184.6,394.2,184.6L394.2,184.6z M300,209.4   c-50.1,0-90.6,40.6-90.6,90.6c0,50.1,40.6,90.6,90.6,90.6c50.1,0,90.6-40.6,90.6-90.6C390.6,249.9,350.1,209.4,300,209.4L300,209.4   z M300,241.2c32.5,0,58.8,26.3,58.8,58.8c0,32.5-26.3,58.8-58.8,58.8c-32.5,0-58.8-26.3-58.8-58.8   C241.2,267.5,267.5,241.2,300,241.2z"/>
</svg>