<?xml version="1.0" encoding="UTF-8" standalone="no"?>
<!--Created with Inkscape (http://www.inkscape.org/)-->
<svg width="151.18" height="151.18" viewBox="0 0 40 40" version="1.1" id="svg1" xml:space="preserve" xmlns="http://www.w3.org/2000/svg" xmlns:svg="http://www.w3.org/2000/svg">
  <g id="layer1" transform="translate(-66.95 -116.24)">
    <circle style="fill:#6364ff;stroke-width:.264583" id="path2" cx="86.95" cy="136.24" r="20"/>
    <path d="M98.71 129.26c-.36-2.69-2.73-4.81-5.53-5.22-.48-.07-2.27-.32-6.42-.32h-.04c-4.15 0-5.04.25-5.51.32-2.73.4-5.22 2.3-5.83 5.03a17.2 17.2 0 0 0-.26 4.19c.07 1.95.09 3.9.27 5.86a27 27 0 0 0 .64 3.84c.58 2.33 2.9 4.27 5.18 5.07a14 14 0 0 0 8.4.17c.6-.2 1.32-.4 1.85-.79a.06.06 0 0 0 .02-.04v-1.9a.05.05 0 0 0-.02-.04.06.06 0 0 0-.05 0 21.17 21.17 0 0 1-4.91.57c-2.85 0-3.62-1.34-3.84-1.9a5.84 5.84 0 0 1-.33-1.5.06.06 0 0 1 .07-.05c1.58.38 3.2.57 4.83.57h1.18c1.64-.05 3.36-.13 4.97-.44l.12-.02c2.54-.49 4.96-2 5.2-5.85l.04-1.75c0-.53.17-3.78-.03-5.78zm-3.91 9.6h-2.67v-6.5c0-1.36-.58-2.05-1.75-2.05-1.28 0-1.92.82-1.92 2.45v3.55H85.8v-3.55c0-1.63-.64-2.46-1.93-2.46-1.16 0-1.74.7-1.74 2.07v6.49h-2.67v-6.69c0-1.36.35-2.45 1.05-3.25a3.68 3.68 0 0 1 2.86-1.22c1.37 0 2.4.52 3.1 1.56l.66 1.11.67-1.1a3.46 3.46 0 0 1 3.09-1.57c1.18 0 2.13.41 2.86 1.22.7.8 1.05 1.89 1.05 3.25z" id="path1" style="fill:#fff;stroke-width:1.04379"/>
  </g>
  <metadata id="metadata3"/>
</svg>
