<?xml version="1.0" encoding="UTF-8" standalone="no"?>
<svg xmlns="http://www.w3.org/2000/svg" width="589" height="589">
  <g fill-rule="evenodd">
    <path d="M294.5 0c-81.3 0-155 33-208.2 86.3A293.6 293.6 0 0 0 0 294.5c0 81.3 33 155 86.3 208.3A293.6 293.6 0 0 0 294.5 589c81.3 0 155-33 208.3-86.2A293.6 293.6 0 0 0 589 294.5c0-81.3-33-155-86.2-208.2A293.6 293.6 0 0 0 294.5 0"/>
    <path fill="#fff" d="M125.2 138.5h100l83.6 109.3 91.7-109.3H437l-110.8 132 137.7 180h-100l-90-117.7L175 450.5h-36.5l118-140.4zm55.8 27.6 196.5 256.8H408L211.5 166.1H181"/>
  </g>
</svg>
