<?xml version="1.0" encoding="UTF-8" standalone="no"?>
<!-- Created with Inkscape (http://www.inkscape.org/) -->

<svg
   width="73.576965mm"
   height="45.574783mm"
   viewBox="0 0 73.576965 45.574783"
   version="1.1"
   id="svg5"
   xmlns:xlink="http://www.w3.org/1999/xlink"
   xmlns="http://www.w3.org/2000/svg"
   xmlns:svg="http://www.w3.org/2000/svg">
  <defs
     id="defs2">
    <linearGradient
       id="linearGradient31435">
      <stop
         style="stop-color:#00264d;stop-opacity:1"
         offset="0"
         id="stop31431" />
      <stop
         style="stop-color:#107fc9;stop-opacity:1"
         offset="1"
         id="stop31433" />
    </linearGradient>
    <linearGradient
       xlink:href="#linearGradient31435"
       id="linearGradient31437"
       x1="132.65257"
       y1="202.20914"
       x2="185.28142"
       y2="251.16077"
       gradientUnits="userSpaceOnUse" />
  </defs>
  <g
     id="layer1"
     transform="translate(-113.24161,-207.40866)">
    <path
       id="path2687"
       style="fill:url(#linearGradient31437);stroke-width:0.264583;fill-opacity:1"
       d="m 153.19029,207.40882 c -0.35079,-0.001 -0.42,0.14481 -0.61288,0.67902 -0.22239,0.61603 -0.23888,0.6366 -0.55604,0.6935 -0.67918,0.12177 -0.72407,0.10295 -1.11983,-0.4842 -0.22082,-0.3276 -0.42892,-0.54777 -0.51832,-0.54777 -0.20951,0 -1.10225,0.40419 -1.10225,0.49919 0,0.0431 0.0571,0.37565 0.1266,0.73897 0.11485,0.60014 0.11446,0.66759 -0.009,0.73639 -0.0745,0.0417 -0.2525,0.18037 -0.39533,0.30799 l -0.25941,0.23203 -0.66198,-0.29766 c -0.75272,-0.33852 -0.73882,-0.34228 -1.23403,0.34727 l -0.25993,0.36173 0.4656,0.57361 0.46561,0.57309 -0.18501,0.45631 -0.185,0.4563 -0.47955,0.0506 c -1.06986,0.11395 -1.01144,0.0821 -1.07384,0.58188 -0.0977,0.78194 -0.0756,0.81908 0.63717,1.07642 0.61593,0.22239 0.63712,0.23938 0.69401,0.55655 0.12178,0.67918 0.10243,0.72356 -0.48472,1.11932 -0.3276,0.22082 -0.54777,0.42943 -0.54777,0.51883 0,0.20951 0.40419,1.10174 0.49919,1.10174 0.0431,0 0.37565,-0.0571 0.73898,-0.12661 0.60014,-0.11485 0.66759,-0.11342 0.73639,0.009 0.0417,0.0745 0.18046,0.25253 0.3085,0.39585 l 0.23306,0.26044 -0.28421,0.62426 c -0.35615,0.78153 -0.36492,0.7168 0.14624,1.12086 0.5395,0.42649 0.52211,0.42786 1.16272,-0.0904 l 0.53278,-0.43149 0.45372,0.18448 c 0.45189,0.18343 0.45435,0.18592 0.50695,0.62167 0.12755,1.056 0.12857,1.05984 0.36948,1.09864 0.12444,0.0202 0.4143,0.0324 0.64389,0.0264 l 0.41755,-0.0103 0.22944,-0.63511 c 0.22239,-0.61591 0.23888,-0.63659 0.55604,-0.69349 0.68042,-0.12199 0.72134,-0.10326 1.15032,0.52296 l 0.39997,0.58395 0.53124,-0.21394 c 0.70861,-0.28545 0.69126,-0.25195 0.54053,-1.0511 -0.12935,-0.68568 -0.12837,-0.70388 0.0398,-0.82166 0.0946,-0.0663 0.27174,-0.20663 0.39378,-0.31161 l 0.22169,-0.19068 0.66197,0.29765 c 0.75255,0.33846 0.73833,0.34228 1.23352,-0.34726 l 0.26045,-0.36225 -0.4656,-0.5731 -0.46561,-0.5736 0.18397,-0.45424 c 0.18365,-0.4525 0.18635,-0.45435 0.62218,-0.50695 1.14273,-0.13803 1.05535,-0.0922 1.11725,-0.58756 0.0972,-0.77772 0.0746,-0.81564 -0.63769,-1.0728 -0.61593,-0.22238 -0.6366,-0.23888 -0.6935,-0.55604 -0.12177,-0.67918 -0.10241,-0.72407 0.48473,-1.11982 0.34543,-0.23285 0.54777,-0.42719 0.54777,-0.52659 0,-0.21984 -0.3964,-1.09347 -0.4961,-1.09347 -0.045,0 -0.37732,0.0565 -0.73845,0.12557 -0.63771,0.12198 -0.66033,0.12058 -0.77773,-0.047 -0.0665,-0.0949 -0.20664,-0.27278 -0.31161,-0.39481 l -0.19069,-0.22169 0.29766,-0.66146 c 0.33943,-0.75476 0.33407,-0.77313 -0.36845,-1.25781 l -0.3421,-0.23564 -0.57258,0.4656 -0.57309,0.46509 -0.45423,-0.18448 c -0.45249,-0.18366 -0.45435,-0.18585 -0.50695,-0.62167 -0.13803,-1.14272 -0.0922,-1.05586 -0.58756,-1.11776 -0.19443,-0.0243 -0.34299,-0.0408 -0.45992,-0.0413 z m 13.39298,2.46961 -0.30024,0.79324 -0.30024,0.79323 -0.58136,0.0703 c -0.45341,0.055 -0.59584,0.0455 -0.64544,-0.0424 -0.035,-0.062 -0.24982,-0.36031 -0.47749,-0.663 -0.46881,-0.62324 -0.46934,-0.62321 -1.27486,-0.25167 -0.46338,0.21372 -0.52647,0.26982 -0.48937,0.43874 0.0851,0.38778 0.21652,1.20199 0.21652,1.34203 0,0.079 -0.20392,0.29807 -0.4532,0.48628 l -0.4532,0.3421 -0.73691,-0.34107 c -0.84336,-0.39017 -0.8092,-0.39938 -1.36943,0.3638 -0.35887,0.4889 -0.38036,0.38299 0.2186,1.09813 0.59017,0.70463 0.56236,0.59226 0.30437,1.22731 l -0.20361,0.50126 -0.8077,0.0868 c -0.44421,0.0479 -0.82798,0.10761 -0.85318,0.13281 -0.0673,0.0673 -0.2367,1.35596 -0.185,1.40766 0.0242,0.0242 0.37896,0.16999 0.78859,0.32402 l 0.74465,0.28008 0.0992,0.57774 c 0.0946,0.55098 0.0912,0.58322 -0.0811,0.70435 -1.31446,0.92414 -1.26797,0.83137 -0.86661,1.73892 0.23095,0.52224 0.17673,0.50648 1.14515,0.33589 0.39581,-0.0697 0.72784,-0.12706 0.73794,-0.12712 0.0101,-6e-5 0.1775,0.21015 0.37155,0.46715 l 0.35243,0.46716 -0.30747,0.68316 c -0.39303,0.87211 -0.39626,0.85081 0.1788,1.30225 0.59414,0.46646 0.58029,0.4659 1.12654,0.0222 0.89801,-0.72937 0.75208,-0.68251 1.33739,-0.42995 0.57401,0.24766 0.54783,0.1952 0.65112,1.3193 0.0457,0.49682 0.0765,0.5764 0.23616,0.6103 0.10107,0.0215 0.25985,0.0552 0.35295,0.0749 v -5.2e-4 c 0.0931,0.0197 0.34154,0.041 0.55191,0.046 l 0.3824,0.01 0.29869,-0.78289 0.29869,-0.78342 0.58188,-0.0703 c 0.45341,-0.055 0.59532,-0.0455 0.64492,0.0424 0.035,0.062 0.25034,0.36034 0.47801,0.66301 0.46786,0.62198 0.47066,0.62272 1.26194,0.25787 l 0.51883,-0.23926 -0.11472,-0.70797 c -0.15984,-0.98324 -0.16987,-0.94531 0.33848,-1.32912 l 0.45733,-0.3452 0.36587,0.17725 c 0.91272,0.44097 1.10541,0.50092 1.24075,0.38861 0.14056,-0.11665 0.78084,-0.96236 0.78084,-1.03146 0,-0.0234 -0.22858,-0.31547 -0.50798,-0.64906 -0.59017,-0.70464 -0.56238,-0.59226 -0.30438,-1.22731 l 0.20361,-0.50126 0.8077,-0.0873 c 0.44419,-0.0479 0.82798,-0.1076 0.85318,-0.13281 0.0673,-0.0673 0.2367,-1.35544 0.185,-1.40715 -0.0243,-0.0242 -0.37897,-0.16983 -0.78858,-0.32349 l -0.74466,-0.27957 -0.10077,-0.57826 c -0.0962,-0.55349 -0.0926,-0.58382 0.0816,-0.70538 1.309,-0.91321 1.26883,-0.83243 0.86816,-1.7384 -0.23341,-0.52782 -0.21916,-0.52386 -1.20147,-0.33589 -0.36499,0.0698 -0.67203,0.12711 -0.68213,0.12712 -0.0101,0 -0.177,-0.21014 -0.37104,-0.46715 l -0.35295,-0.46767 0.30748,-0.68265 c 0.39303,-0.87211 0.39625,-0.8508 -0.1788,-1.30225 -0.59416,-0.46645 -0.58029,-0.46641 -1.12655,-0.0227 -0.89802,0.72938 -0.75206,0.68249 -1.33739,0.42994 -0.57357,-0.24751 -0.54774,-0.19602 -0.65009,-1.31206 -0.0596,-0.65006 -0.0536,-0.64507 -0.92035,-0.71727 z m -13.93558,0.7059 c 0.93612,0.0123 1.8844,0.37029 2.65151,1.1374 2.17181,2.17181 1.07035,5.85029 -1.94303,6.48901 -2.60395,0.55193 -5.02422,-1.74877 -4.58422,-4.35735 0.34678,-2.05601 2.08858,-3.29254 3.87574,-3.26906 z m -0.0646,1.14619 c -1.20386,0.007 -1.66204,1.11276 -1.0573,2.55023 0.42906,1.01988 0.40382,1.08781 -0.49868,1.34979 -1.00448,0.2916 -1.15342,0.43962 -1.15342,1.14825 v 0.2837 h 2.66703 2.66702 v -0.40462 c 0,-0.55277 -0.16216,-0.75074 -0.74466,-0.91003 -1.19634,-0.32716 -1.28902,-0.45413 -0.92759,-1.2702 0.6624,-1.49562 0.2261,-2.75412 -0.9524,-2.74712 z m 13.72784,1.81953 c 0.66087,0.004 1.3432,0.15304 2.00763,0.47232 0.58225,0.27979 1.59296,1.27077 1.88568,1.84898 1.33104,2.62919 -0.0348,5.70368 -2.85564,6.42803 -2.75219,0.70672 -5.50066,-1.45286 -5.49166,-4.31498 0.009,-2.60055 2.09377,-4.44701 4.45399,-4.43435 z m -39.09322,0.87281 c -0.22209,-0.003 -0.37847,0.006 -0.40411,0.032 -0.0491,0.0491 -0.26854,0.67087 -0.48782,1.38183 l -0.39843,1.29294 -0.96583,0.19017 c -0.74674,0.1472 -0.98625,0.16748 -1.05575,0.0889 -0.0494,-0.0559 -0.44741,-0.5519 -0.8847,-1.10174 -0.719,-0.90407 -0.81573,-0.99441 -1.01079,-0.94671 -0.37798,0.0924 -1.96253,0.90278 -2.01073,1.02836 -0.0255,0.0665 0.0887,0.71903 0.25373,1.45056 l 0.30024,1.33015 -0.26872,0.21187 c -0.14769,0.11641 -0.48231,0.41242 -0.74362,0.65784 l -0.47491,0.44597 -0.54105,-0.24184 c -1.17071,-0.52356 -2.09514,-0.80802 -2.23811,-0.68937 -0.33343,0.27673 -1.30831,1.8704 -1.23093,2.01228 0.043,0.0787 0.48302,0.57065 0.97824,1.09296 0.77697,0.81949 0.88867,0.97203 0.81287,1.11362 -0.0483,0.0903 -0.20083,0.50122 -0.339,0.91313 l -0.25115,0.74879 -0.36432,0.062 c -0.20018,0.034 -0.81562,0.13551 -1.36787,0.22531 -0.55225,0.0898 -1.03585,0.19551 -1.07487,0.23461 -0.1156,0.11599 -0.27708,2.32124 -0.17725,2.42104 0.0473,0.0473 0.66776,0.26493 1.37872,0.48421 l 1.29295,0.39894 0.18965,0.96583 c 0.10453,0.53116 0.16366,0.9903 0.13126,1.0201 -0.0324,0.0298 -0.45575,0.37244 -0.94051,0.76171 -0.48476,0.38928 -0.95965,0.77102 -1.05523,0.84853 l -0.17364,0.14107 0.23616,0.57878 c 0.12983,0.3183 0.37075,0.82108 0.53537,1.11723 l 0.29921,0.53848 0.35037,-0.0548 c 0.4063,-0.0638 2.224,-0.46516 2.3828,-0.52607 0.0591,-0.0227 0.19611,0.085 0.30437,0.23927 0.10826,0.1543 0.39713,0.49217 0.64182,0.75086 l 0.44494,0.47024 -0.36484,0.88471 c -0.8132,1.97104 -0.84642,1.76978 0.43357,2.62568 l 0.88108,0.58912 0.23874,-0.17002 c 0.13127,-0.0935 0.61929,-0.5316 1.08469,-0.97412 l 0.84594,-0.8046 0.32712,0.13954 c 0.17982,0.0769 0.59387,0.22268 0.91984,0.32348 l 0.59273,0.18294 0.0641,0.37518 c 0.0354,0.20624 0.1369,0.82698 0.2253,1.37924 0.0884,0.55224 0.19433,1.03717 0.23513,1.07797 0.0408,0.0408 0.45347,0.10848 0.91726,0.15039 h 5.2e-4 c 1.48506,0.13406 1.47361,0.13724 1.6955,-0.45477 0.10472,-0.2794 0.29784,-0.8935 0.42943,-1.36477 l 0.23926,-0.8568 0.80615,-0.13642 c 0.44326,-0.0749 0.88312,-0.15801 0.97772,-0.185 0.14011,-0.04 0.29336,0.10478 0.82682,0.78134 0.36019,0.4568 0.76663,0.96028 0.90331,1.11879 l 0.24856,0.28784 0.37001,-0.14107 c 0.79956,-0.30536 1.79742,-0.87323 1.81952,-1.03561 0.0121,-0.0889 -0.10912,-0.73292 -0.26923,-1.43142 l -0.29094,-1.27021 0.26872,-0.21135 c 0.14799,-0.11642 0.48081,-0.41082 0.73949,-0.65371 l 0.47025,-0.44132 0.8847,0.36483 c 1.97087,0.81314 1.76981,0.84587 2.62465,-0.43251 0.69268,-1.03587 0.73459,-0.84707 -0.46819,-2.11565 -0.77696,-0.81949 -0.88815,-0.97202 -0.81235,-1.11362 0.0483,-0.0903 0.20017,-0.50123 0.33796,-0.91313 l 0.25063,-0.74879 0.36484,-0.0641 c 0.20056,-0.0354 0.81667,-0.13691 1.36891,-0.22531 0.55224,-0.0884 1.03587,-0.19283 1.07487,-0.23203 0.11559,-0.11599 0.27653,-2.32124 0.17673,-2.42104 -0.0473,-0.0473 -0.66776,-0.26544 -1.37873,-0.48472 l -1.29242,-0.39843 -0.19017,-0.96583 c -0.10453,-0.53116 -0.16315,-0.99029 -0.13075,-1.02009 0.0324,-0.0298 0.45525,-0.37295 0.94,-0.76223 0.48477,-0.38928 0.95963,-0.77103 1.05523,-0.84853 l 0.17415,-0.14107 -0.23616,-0.57878 c -0.36511,-0.89519 -0.80431,-1.63686 -0.96842,-1.63608 -0.0792,2.7e-4 -0.71537,0.13119 -1.41386,0.29043 l -1.27021,0.28939 -0.21136,-0.26924 c -0.11642,-0.14799 -0.4108,-0.48082 -0.6537,-0.73949 l -0.44132,-0.47025 0.36484,-0.88419 c 0.81313,-1.97088 0.84587,-1.77031 -0.43254,-2.62516 -1.03587,-0.69267 -0.84704,-0.73459 -2.11563,0.46819 -0.81951,0.77697 -0.97203,0.88867 -1.11363,0.81287 -0.0902,-0.0483 -0.50122,-0.20068 -0.91312,-0.33848 l -0.74879,-0.25063 -0.0641,-0.36432 c -0.0354,-0.20055 -0.13691,-0.81666 -0.22531,-1.36891 -0.0884,-0.55225 -0.19283,-1.03597 -0.23203,-1.07487 -0.09,-0.0894 -1.34755,-0.20398 -2.01383,-0.21239 z m 39.08134,0.49454 c -0.37837,0.005 -0.76077,0.13885 -1.07642,0.416 -0.5719,0.50216 -0.65199,0.88086 -0.50953,2.40295 0.0719,0.76776 0.0713,0.76888 -0.15348,0.94568 l -0.22479,0.17673 0.24753,0.0543 c 0.15022,0.033 0.37127,0.002 0.56275,-0.0775 0.39062,-0.16322 0.37983,-0.16385 0.37983,0.0217 0,0.32554 -0.61156,0.73727 -1.45521,0.97979 -0.56105,0.16127 -0.83096,0.4435 -0.83096,0.86816 v 0.28474 h 3.09025 c 2.88996,0 3.08998,-0.01 3.08198,-0.14831 -0.0318,-0.55843 -0.23878,-0.77276 -1.00304,-1.04025 -0.90345,-0.3162 -1.27434,-0.59178 -1.27434,-0.94568 0,-0.24342 0.0106,-0.25331 0.1478,-0.1328 0.20701,0.18179 0.50419,0.2598 0.75292,0.1974 l 0.21084,-0.0532 -0.19172,-0.15503 c -0.21609,-0.175 -0.22657,-0.32088 -0.11782,-1.62057 0.0602,-0.72031 0.0488,-0.85114 -0.10594,-1.20096 -0.28057,-0.6343 -0.90004,-0.98188 -1.53065,-0.97307 z m -39.26531,5.7366 c 4.09198,0.0201 7.50291,3.44445 7.50291,7.53236 0,3.60065 -2.67865,6.78793 -6.22443,7.40626 -2.47825,0.43217 -4.81615,-0.31308 -6.60993,-2.10684 -1.79348,-1.79348 -2.53946,-4.13211 -2.10737,-6.60993 0.62127,-3.56261 3.8218,-6.23955 7.43882,-6.22185 z m 23.95772,1.60559 c -0.28727,1.1e-4 -0.5343,0.45657 -0.92139,1.70325 l -0.14728,0.47491 -0.84336,0.10232 c -0.46373,0.0562 -0.8518,0.0904 -0.863,0.0755 -0.0112,-0.0149 -0.29353,-0.41567 -0.62735,-0.89039 -0.33381,-0.47474 -0.64213,-0.88487 -0.68523,-0.91157 -0.0876,-0.0541 -0.96548,0.25925 -1.52394,0.54415 -0.41481,0.21164 -0.40648,0.0902 -0.11472,1.68931 l 0.14573,0.79736 -0.24185,0.17622 c -0.13282,0.0969 -0.41651,0.3194 -0.63045,0.49403 -0.47111,0.38448 -0.35601,0.38539 -1.20923,-0.0119 -0.38879,-0.18103 -0.8581,-0.39232 -1.04283,-0.46922 l -0.33538,-0.13953 -0.27543,0.32091 c -0.15143,0.17648 -0.42994,0.53719 -0.61857,0.80202 l -0.34262,0.48163 0.3974,0.49196 c 0.21862,0.2707 0.56041,0.67534 0.75964,0.89917 0.30009,0.33717 0.34939,0.43887 0.28629,0.59272 -0.0419,0.10214 -0.18688,0.45229 -0.32195,0.77825 l -0.24546,0.59273 -1.12706,0.10232 c -0.61977,0.0561 -1.15445,0.1325 -1.18804,0.1695 -0.0731,0.0803 -0.25115,1.26659 -0.25115,1.67276 0,0.28484 0.005,0.28849 0.86816,0.62529 0.4773,0.18629 0.96705,0.36316 1.08831,0.39326 0.20997,0.0522 0.22531,0.0955 0.32401,0.90949 0.0851,0.70393 0.0833,0.86588 -0.009,0.91779 -0.0618,0.0347 -0.47436,0.32795 -0.91674,0.65164 -0.91771,0.67146 -0.90233,0.62455 -0.50488,1.57922 0.418,1.00407 0.30845,0.95044 1.50792,0.73845 0.56615,-0.10001 1.08133,-0.1819 1.14463,-0.1819 0.0633,0 0.33485,0.28686 0.60358,0.6377 l 0.48834,0.6382 -0.42323,0.9493 c -0.23297,0.52229 -0.44584,1.01468 -0.47284,1.094 -0.0469,0.1379 0.43682,0.57764 1.26763,1.15237 l 0.26716,0.18499 0.69815,-0.57152 c 0.38402,-0.31425 0.79801,-0.65281 0.91984,-0.75243 l 0.22118,-0.18086 0.76068,0.31525 0.76119,0.31572 0.0656,0.79685 c 0.0361,0.43831 0.094,0.968 0.12867,1.17721 l 0.0631,0.38031 0.59066,0.0951 h 5.2e-4 c 0.32495,0.0523 0.7669,0.10047 0.98236,0.10647 0.44599,0.013 0.47387,-0.0295 0.97307,-1.48053 l 0.23668,-0.68731 0.84336,-0.10231 c 0.69338,-0.084 0.8546,-0.082 0.9064,0.0104 0.0347,0.0618 0.32743,0.47434 0.65113,0.91672 0.67147,0.91771 0.62455,0.90231 1.57923,0.50488 1.00408,-0.41799 0.95093,-0.30895 0.73897,-1.50844 -0.10001,-0.56616 -0.1819,-1.0808 -0.1819,-1.14411 0,-0.0633 0.28648,-0.33496 0.63717,-0.60357 l 0.63769,-0.48834 1.07487,0.48575 1.07435,0.48575 0.2775,-0.32658 c 0.15252,-0.1796 0.43017,-0.5425 0.61702,-0.80669 l 0.33951,-0.48059 -0.75396,-0.92344 -0.75447,-0.92345 0.2496,-0.58603 c 0.1374,-0.32218 0.28246,-0.66598 0.32246,-0.76377 0.0642,-0.15724 0.16958,-0.18476 0.90589,-0.23876 0.45818,-0.0336 0.98576,-0.0876 1.17202,-0.11988 l 0.33848,-0.0584 0.10025,-0.63407 c 0.0552,-0.34848 0.10294,-0.7907 0.10594,-0.98288 0.006,-0.39619 -0.0683,-0.44286 -1.48622,-0.93069 l -0.68781,-0.23668 -0.10232,-0.84336 c -0.0847,-0.69918 -0.0824,-0.85392 0.0124,-0.90692 0.0629,-0.0352 0.47539,-0.32685 0.91674,-0.64802 0.9168,-0.66717 0.90264,-0.62264 0.50333,-1.58182 -0.41799,-1.00407 -0.30895,-0.95045 -1.50843,-0.73845 -0.56615,0.1 -1.08157,0.1819 -1.14567,0.1819 -0.0641,0 -0.33465,-0.29001 -0.601,-0.64389 l -0.48421,-0.64337 0.48318,-1.06867 0.48266,-1.06867 -0.32608,-0.27699 c -0.17959,-0.15254 -0.54235,-0.42975 -0.80564,-0.61598 l -0.47852,-0.339 -0.69867,0.57154 c -0.38419,0.31416 -0.79437,0.65078 -0.91157,0.74828 l -0.21291,0.17725 -0.76894,-0.31316 -0.76843,-0.31368 -0.10284,-1.0852 c -0.0565,-0.59711 -0.11944,-1.12959 -0.14004,-1.18339 -0.0369,-0.0963 -1.19555,-0.29576 -1.71772,-0.29559 z m -26.13691,1.41232 c -0.65436,-0.0247 -1.32252,0.16088 -1.81436,0.58187 -0.68237,0.58408 -1.02807,1.52055 -0.8723,2.36317 0.21004,1.13621 0.95472,2.17679 3.17035,4.42712 0.88258,0.89641 1.6317,1.62987 1.6645,1.62987 0.12305,0 3.27784,-3.28875 3.73776,-3.8964 1.18351,-1.56364 1.42299,-2.84339 0.73897,-3.95015 -0.93052,-1.50559 -3.52689,-1.54694 -4.3801,-0.0698 l -0.0982,0.16898 -0.0977,-0.16898 c -0.3896,-0.67451 -1.20765,-1.05401 -2.04897,-1.08572 z m 48.93241,2.27066 -0.31677,0.8046 c -0.17411,0.44238 -0.38501,1.01872 -0.46871,1.28106 l -0.15244,0.47697 -0.88936,0.11421 c -0.48915,0.0628 -0.93266,0.11496 -0.98546,0.11575 -0.0528,8e-4 -0.40805,-0.43652 -0.78962,-0.97203 -1.00428,-1.40943 -0.86794,-1.32099 -1.61799,-1.05161 -0.7652,0.27481 -1.60249,0.68803 -1.60249,0.79064 0,0.0414 0.0973,0.65289 0.21653,1.3591 0.1192,0.70619 0.20519,1.31432 0.19068,1.35081 -0.0145,0.0366 -0.35645,0.31731 -0.76015,0.62426 l -0.73433,0.5581 -1.23558,-0.55397 c -0.67963,-0.30487 -1.29066,-0.53336 -1.35806,-0.50746 -0.13312,0.0511 -1.09524,1.23902 -1.33635,1.65003 l -0.14934,0.25425 0.60461,0.74724 c 0.33251,0.41112 0.73778,0.88721 0.9002,1.05781 l 0.29507,0.31006 -0.37,0.92397 -0.36948,0.92398 -1.38545,0.13695 c -0.76188,0.0753 -1.40217,0.15417 -1.42317,0.17518 -0.0866,0.0866 -0.28788,1.63394 -0.26458,2.03346 l 0.0248,0.4315 0.8046,0.31523 c 0.4424,0.17333 1.01835,0.38314 1.28003,0.46665 l 0.47594,0.15192 0.0982,0.76274 c 0.0542,0.41952 0.11811,0.8582 0.14211,0.97462 0.0392,0.19029 -0.0631,0.28715 -1.01389,0.95911 -0.58162,0.41106 -1.09847,0.79672 -1.14876,0.85731 -0.14781,0.17811 0.70321,2.33217 0.92139,2.33217 0.0414,0 0.65289,-0.0978 1.35909,-0.21704 0.7062,-0.11922 1.31422,-0.20458 1.35082,-0.19018 0.0365,0.0145 0.31767,0.35679 0.62477,0.76067 l 0.5581,0.73433 -0.5457,1.21285 c -0.30011,0.66714 -0.5457,1.25746 -0.5457,1.31207 -2.7e-4,0.11784 0.68937,0.71532 1.38596,1.20044 l 0.49764,0.34673 0.35967,-0.25836 c 0.19774,-0.14203 0.69001,-0.54301 1.09451,-0.89144 l 0.73587,-0.63354 0.90899,0.36483 0.90898,0.36484 0.14005,1.38543 c 0.077,0.76211 0.15373,1.39968 0.17053,1.41648 0.0168,0.0169 0.33305,0.0852 0.7028,0.15192 0.81927,0.14796 1.69965,0.16986 1.77715,0.0444 0.0313,-0.0506 0.25887,-0.63135 0.5054,-1.29088 l 0.44803,-1.19941 0.96067,-0.14211 c 0.52821,-0.0787 0.98191,-0.11644 1.00821,-0.0847 0.0263,0.0316 0.36522,0.5053 0.75344,1.05264 0.38825,0.54737 0.75267,1.0342 0.80977,1.08159 0.17236,0.14304 2.32595,-0.71485 2.32595,-0.92654 0,-0.0414 -0.0978,-0.65342 -0.21704,-1.35962 -0.1192,-0.7062 -0.20467,-1.31381 -0.19017,-1.3503 0.0144,-0.0366 0.35628,-0.31771 0.76016,-0.62476 l 0.73484,-0.55811 1.21285,0.5457 c 0.66713,0.30009 1.25746,0.54552 1.31206,0.54571 0.11787,0 0.71534,-0.6894 1.20045,-1.38597 l 0.34674,-0.49766 -0.25838,-0.35964 c -0.14202,-0.19775 -0.543,-0.69054 -0.89142,-1.09504 l -0.63355,-0.73535 0.36484,-0.9126 0.36483,-0.9126 1.10071,-0.0992 c 1.84165,-0.16642 1.70209,-0.10861 1.82883,-0.7638 0.0598,-0.3089 0.11069,-0.86601 0.11369,-1.23817 l 0.005,-0.67644 -0.67696,-0.26767 c -0.37254,-0.14717 -0.9491,-0.3568 -1.28106,-0.46612 l -0.60358,-0.19897 -0.11472,-0.88884 c -0.063,-0.48895 -0.11497,-0.93266 -0.11576,-0.98547 -7.9e-4,-0.0528 0.43651,-0.40804 0.97204,-0.78959 1.36784,-0.97465 1.30754,-0.90054 1.13843,-1.40666 -0.21177,-0.63382 -0.77815,-1.81383 -0.87075,-1.81383 -0.0451,0 -0.66012,0.0973 -1.36633,0.21653 -0.70619,0.1192 -1.3137,0.20508 -1.3503,0.19068 -0.0365,-0.0145 -0.31768,-0.35678 -0.62477,-0.76068 l -0.55811,-0.73432 0.54571,-1.21284 c 0.30012,-0.66714 0.5457,-1.25747 0.5457,-1.31207 2.7e-4,-0.11786 -0.68937,-0.71585 -1.38596,-1.20096 l -0.49764,-0.34623 -0.35967,0.25838 c -0.19774,0.14201 -0.68868,0.54194 -1.09141,0.88884 l -0.73225,0.63045 -0.91623,-0.36174 -0.9157,-0.36225 -0.0997,-1.10071 c -0.16623,-1.84156 -0.10755,-1.70207 -0.76274,-1.82883 -0.30893,-0.0598 -0.86497,-0.11068 -1.23559,-0.11368 z m -23.38048,1.36891 c 3.82998,0.0851 6.90909,3.78871 5.89214,7.76489 -0.55377,2.16524 -2.47593,4.04407 -4.59041,4.48656 -0.34051,0.0712 -0.82857,0.1419 -1.08469,0.15708 -4.14222,0.24527 -7.38597,-3.71506 -6.35258,-7.75559 0.54229,-2.12034 2.33778,-3.91583 4.45812,-4.45812 0.56803,-0.14528 1.13028,-0.20698 1.67742,-0.19482 z m 0.015,1.74614 c -1.74709,0.0219 -3.53966,0.8978 -4.26898,2.44482 -1.25408,2.66009 0.10884,5.51748 2.88354,6.04561 1.15661,0.22016 3.06047,-0.0334 3.97133,-0.52917 0.48418,-0.2635 0.47968,-0.24397 0.15555,-0.69141 -0.30065,-0.41502 -0.24005,-0.40441 -0.76274,-0.13954 -1.9859,1.00635 -4.38509,0.40987 -5.22449,-1.29913 -0.36311,-0.73933 -0.34992,-2.10229 0.0279,-2.89234 0.7622,-1.5938 2.80674,-2.35219 4.64675,-1.72341 1.21793,0.41619 1.89689,1.99515 1.43764,3.34295 -0.24148,0.7087 -0.97726,1.34911 -1.39682,1.21594 -0.24742,-0.0785 -0.21643,-0.32374 0.25683,-2.05103 0.23264,-0.84908 0.42272,-1.58257 0.42272,-1.62987 0,-0.0495 -0.23401,-0.0858 -0.55036,-0.0858 -0.43273,0 -0.55035,0.0272 -0.55035,0.12713 0,0.17432 -0.063,0.15999 -0.34468,-0.077 -0.54146,-0.45561 -1.51755,-0.32734 -2.22054,0.29146 -0.98875,0.87033 -1.34683,2.69299 -0.72605,3.69744 0.45553,0.73705 1.69397,0.85124 2.37298,0.2186 l 0.22428,-0.20929 0.1142,0.23823 c 0.37293,0.77777 1.91491,0.51634 2.80706,-0.47596 0.58688,-0.65273 0.77367,-1.20509 0.77567,-2.28667 0.002,-1.0728 -0.1956,-1.59067 -0.88367,-2.3182 -0.79797,-0.84374 -1.97239,-1.22832 -3.16777,-1.21337 z m 0.0558,2.67013 c 0.18745,0.0192 0.35573,0.14197 0.47542,0.3917 0.24079,0.50238 -0.23365,2.01001 -0.77618,2.46652 -0.65233,0.54889 -1.25135,0.0834 -1.13688,-0.88315 0.1374,-1.16018 0.87527,-2.03271 1.43764,-1.97507 z m 22.79757,0.2961 c 3.21405,-0.0322 6.2095,2.04547 7.18974,5.4281 1.23451,4.26003 -1.66439,8.70038 -6.10815,9.35601 -3.1259,0.4612 -6.25169,-1.1793 -7.6538,-4.01679 -1.86423,-3.77275 -0.38149,-8.19692 3.35174,-10.00199 1.05343,-0.50935 2.14912,-0.7546 3.22047,-0.76533 z m 0.2372,1.84692 c -3.32375,-0.0543 -6.49543,3.00093 -5.57124,6.92155 0.45976,1.95048 2.25108,3.68874 4.23023,4.10464 5.44173,1.14361 9.01417,-5.47193 5.07618,-9.39993 -1.11076,-1.10794 -2.43458,-1.60502 -3.73517,-1.62626 z m 0.14056,1.08674 0.60823,0.12661 c 0.75917,0.1583 0.82932,0.22386 0.54518,0.508 -0.15055,0.15049 -0.22169,0.18177 -0.22169,0.0977 0,-0.29282 -0.50246,-0.25443 -0.80977,0.062 -0.33147,0.34132 -0.36627,0.478 -0.12195,0.478 0.0931,0 0.16949,0.0401 0.16949,0.0894 0,0.0493 0.0382,0.066 0.0847,0.0372 0.0466,-0.0288 0.0848,-0.14282 0.0848,-0.25371 0,-0.11094 0.0382,-0.22545 0.0847,-0.25426 0.0466,-0.0287 0.0848,0.007 0.0848,0.0801 0,0.0726 0.0578,0.13176 0.12867,0.13176 0.11265,0 0.1116,0.0266 -0.01,0.21188 -0.0939,0.14324 -0.21645,0.21135 -0.37879,0.21135 -0.27664,0 -1.05447,0.38631 -0.93121,0.46251 0.16323,0.10089 -0.0119,0.31602 -0.22428,0.27543 -0.1611,-0.0308 -0.22373,0.007 -0.28783,0.17569 -0.15503,0.4078 0.26024,0.48535 0.59479,0.11112 0.28563,-0.31953 0.498,-0.34679 0.83406,-0.1075 0.3111,0.22154 0.37289,0.16582 0.0837,-0.0755 -0.10879,-0.0908 -0.14383,-0.15973 -0.0811,-0.16174 0.0603,-0.003 0.20699,0.0943 0.32557,0.21291 0.16484,0.16487 0.24196,0.19334 0.32866,0.12145 0.0869,-0.0721 0.1357,-0.0517 0.2098,0.0868 0.0735,0.13734 0.16118,0.17399 0.36587,0.15348 0.23781,-0.0238 0.26923,-0.003 0.26923,0.185 0,0.20238 -0.0213,0.21055 -0.48679,0.20153 -0.26776,-0.005 -0.48679,0.0233 -0.48679,0.0636 0,0.10406 -0.18248,0.0908 -0.44803,-0.0326 -0.12845,-0.0596 -0.22893,-0.17489 -0.22893,-0.26458 -10e-4,-0.29321 -1.15192,-0.11872 -1.49862,0.22738 -0.14876,0.14851 -0.36292,0.35962 -0.47594,0.46871 -0.30167,0.29112 -0.36484,0.95126 -0.1359,1.4242 0.20579,0.42508 0.56702,0.58388 1.13533,0.49869 0.22425,-0.0336 0.38818,-0.0206 0.42168,0.0336 0.0302,0.0488 0.1287,0.0889 0.2191,0.0889 0.13134,0 0.16434,0.0592 0.16433,0.29612 1e-5,0.16298 0.0335,0.29609 0.0744,0.29609 0.16026,0 0.29253,0.50567 0.19069,0.72917 -0.0777,0.17063 -0.0716,0.25058 0.0305,0.39634 0.0703,0.10036 0.12816,0.23479 0.12816,0.29869 0,0.0639 0.0756,0.22307 0.16847,0.35348 0.24283,0.34103 0.68644,0.23347 1.11517,-0.27027 0.17048,-0.20031 0.4086,-0.47156 0.52917,-0.60253 0.17519,-0.19034 0.21911,-0.32332 0.21911,-0.66355 0,-0.35936 0.0522,-0.50067 0.33641,-0.90588 0.1852,-0.26403 0.36173,-0.60492 0.39223,-0.75758 0.0546,-0.27305 0.0523,-0.27607 -0.16227,-0.17828 -0.19651,0.0895 -0.24805,0.0714 -0.51934,-0.18449 -0.16563,-0.15621 -0.30183,-0.32354 -0.30283,-0.37156 -0.001,-0.0479 -0.0764,-0.18227 -0.16743,-0.29869 -0.0911,-0.11639 -0.16643,-0.26596 -0.16743,-0.33226 -0.002,-0.10552 0.53362,0.53382 0.81907,0.97822 0.0947,0.14748 0.12476,0.13449 0.44442,-0.19791 0.21708,-0.22572 0.34313,-0.43545 0.34313,-0.57155 0,-0.21217 -0.0634,-0.25038 -0.3669,-0.21858 -0.0854,0.009 -0.20784,-0.0529 -0.27234,-0.13798 -0.17415,-0.22984 -0.14716,-0.2998 0.0677,-0.17467 0.21114,0.123 0.40953,0.12946 0.76894,0.0253 0.3931,-0.11399 0.49656,0.072 0.54415,0.98237 0.1205,2.30457 -1.24992,4.16097 -3.4556,4.68085 -1.27695,0.30096 -2.55479,0.0153 -3.69176,-0.82579 -0.5561,-0.41138 -0.73036,-0.70139 -0.51573,-0.85834 0.0696,-0.0509 0.14611,-0.244 0.17001,-0.42944 0.024,-0.18548 0.0715,-0.42312 0.10542,-0.52761 0.0505,-0.15555 -0.017,-0.26789 -0.37155,-0.62063 -0.23819,-0.23691 -0.43305,-0.48702 -0.43305,-0.55552 0,-0.0685 -0.0954,-0.26432 -0.21187,-0.43564 -0.11646,-0.17134 -0.21136,-0.37949 -0.21136,-0.46249 0,-0.083 -0.0435,-0.22032 -0.0966,-0.30541 -0.28284,-0.45286 0.57605,-2.14527 1.27124,-2.50476 0.14556,-0.0753 0.26458,-0.17436 0.26458,-0.22066 0,-0.0458 0.0859,-0.0632 0.19069,-0.0377 0.15387,0.0374 0.22535,-0.0156 0.37207,-0.27389 0.14248,-0.25093 0.27646,-0.35322 0.62166,-0.47438 0.49457,-0.17354 0.6561,-0.13771 0.27285,0.0605 -0.28087,0.14526 -0.47012,0.45744 -0.20929,0.3452 0.082,-0.0353 0.37114,-0.11258 0.64286,-0.17208 0.27173,-0.0594 0.64353,-0.20704 0.82579,-0.32763 z m -0.6873,1.28106 v 5.3e-4 c -0.035,-1.3e-4 -0.0522,0.067 -0.0444,0.20207 0.008,0.13557 0.0626,0.21132 0.15244,0.21134 0.1191,6e-5 0.12558,-0.0315 0.0424,-0.21084 -0.0627,-0.13526 -0.11543,-0.20296 -0.15038,-0.2031 z m -0.14935,0.16071 c -0.0466,0 -0.10814,0.0376 -0.13694,0.0842 -0.0288,0.0466 -0.014,0.0847 0.0326,0.0847 0.0466,0 0.10814,-0.0382 0.13694,-0.0847 0.0288,-0.0466 0.014,-0.0842 -0.0326,-0.0842 z m 2.32906,0.54676 c 0.0468,-0.003 0.13777,0.0523 0.24856,0.15502 l 0.24702,0.22945 h -0.26717 c -0.14705,0 -0.32374,0.0217 -0.39274,0.048 -0.069,0.0265 -0.14864,0.0109 -0.17673,-0.0346 -0.0801,-0.12957 0.0434,-0.36658 0.16639,-0.31938 0.0608,0.0233 0.12525,-0.003 0.14315,-0.0553 0.005,-0.0145 0.0159,-0.0222 0.0315,-0.0232 z" />
    <text
       xml:space="preserve"
       style="font-style:normal;font-variant:normal;font-weight:normal;font-stretch:normal;font-size:7.76111px;line-height:125%;font-family:Ubuntu;-inkscape-font-specification:Ubuntu;letter-spacing:0px;word-spacing:0px;fill:none;stroke:#000000;stroke-width:0.264583px;stroke-linecap:butt;stroke-linejoin:miter;stroke-opacity:1"
       x="138.31857"
       y="215.1738"
       id="text14711"><tspan
         id="tspan14709"
         style="font-style:normal;font-variant:normal;font-weight:normal;font-stretch:normal;font-size:7.76111px;font-family:Ubuntu;-inkscape-font-specification:Ubuntu;stroke-width:0.264583px"
         x="138.31857"
         y="215.1738" /></text>
  </g>
</svg>
