<?xml version="1.0" encoding="UTF-8" standalone="no"?>
<!-- Created with Inkscape (http://www.inkscape.org/) -->

<svg
   width="51.086163mm"
   height="48.655323mm"
   viewBox="0 0 51.086163 48.655323"
   version="1.1"
   id="svg30325"
   xmlns:xlink="http://www.w3.org/1999/xlink"
   xmlns="http://www.w3.org/2000/svg"
   xmlns:svg="http://www.w3.org/2000/svg">
  <defs
     id="defs30322">
    <linearGradient
       id="linearGradient30524">
      <stop
         style="stop-color:#00264d;stop-opacity:1"
         offset="0"
         id="stop30520" />
      <stop
         style="stop-color:#107fc9;stop-opacity:1"
         offset="1"
         id="stop30522" />
    </linearGradient>
    <linearGradient
       xlink:href="#linearGradient30524"
       id="linearGradient30528"
       x1="150.64842"
       y1="107.26025"
       x2="199.95171"
       y2="153.93033"
       gradientUnits="userSpaceOnUse" />
  </defs>
  <g
     id="layer1"
     transform="translate(-150.02928,-106.65492)"
     style="fill-opacity:1;fill:url(#linearGradient30528)">
    <path
       style="fill:url(#linearGradient30528);stroke-width:0.999998;fill-opacity:1"
       d="m 166.8462,155.22877 c -0.37816,-0.0893 -0.43072,-0.19301 -0.43226,-0.85315 l -0.001,-0.55703 -0.42903,-0.20094 c -0.29112,-0.13636 -0.46477,-0.17503 -0.54022,-0.12031 -1.00842,0.73131 -0.97432,0.72549 -1.51817,0.25922 l -0.32843,-0.28157 0.31554,-0.60047 0.31554,-0.60047 -0.27885,-0.38829 c -0.23279,-0.32415 -0.31457,-0.38153 -0.49511,-0.34735 -0.11895,0.0225 -0.40997,0.0647 -0.64672,0.0938 l -0.43045,0.0528 -0.18338,-0.47922 c -0.23948,-0.62581 -0.26447,-0.56076 0.37551,-0.97772 0.54693,-0.35634 0.55782,-0.3706 0.50893,-0.66611 -0.0275,-0.16609 -0.0504,-0.3877 -0.0509,-0.49248 -5.1e-4,-0.10477 -0.0438,-0.1905 -0.0962,-0.1905 -0.0524,0 -0.32307,-0.10224 -0.60151,-0.2272 l -0.50627,-0.2272 0.056,-0.42244 c 0.0924,-0.69676 0.13252,-0.73183 0.83676,-0.73183 h 0.61515 l 0.18621,-0.38326 c 0.2399,-0.49379 0.24374,-0.46874 -0.1521,-0.99085 -0.4139,-0.54593 -0.4143,-0.6063 -0.007,-1.07005 l 0.32481,-0.36984 0.59179,0.31098 0.59179,0.31098 0.39683,-0.26782 c 0.33996,-0.22944 0.39074,-0.29988 0.35427,-0.49148 -0.0234,-0.12301 -0.0663,-0.41736 -0.0954,-0.6541 l -0.0528,-0.43045 0.47921,-0.18339 c 0.62581,-0.23948 0.56077,-0.26446 0.97773,0.37551 0.35633,0.54693 0.37059,0.55782 0.66611,0.50893 0.16609,-0.0275 0.3688,-0.0504 0.45048,-0.0509 0.10202,-6.8e-4 0.23267,-0.18919 0.41747,-0.60248 l 0.26897,-0.60154 0.42267,0.0561 c 0.69741,0.0925 0.73206,0.13223 0.73206,0.83919 v 0.61755 l 0.42903,0.20095 c 0.29284,0.13715 0.4653,0.17534 0.54328,0.1203 0.0628,-0.0444 0.30603,-0.22209 0.54042,-0.39497 l 0.42617,-0.31433 0.36405,0.30105 c 0.20022,0.16558 0.39704,0.3324 0.43736,0.37071 0.0405,0.0385 -0.0677,0.33081 -0.24217,0.65373 l -0.31547,0.58408 0.28155,0.39944 c 0.23553,0.33415 0.31662,0.3928 0.49616,0.35886 0.11804,-0.0223 0.41077,-0.0647 0.6505,-0.0942 l 0.43589,-0.0536 0.17795,0.4756 c 0.23417,0.62588 0.25689,0.56726 -0.38095,0.98283 -0.54693,0.35634 -0.55782,0.3706 -0.50893,0.66611 0.0275,0.16609 0.0504,0.36881 0.0509,0.45048 6.8e-4,0.10203 0.18919,0.23268 0.60247,0.41747 l 0.60155,0.26898 -0.0561,0.42267 c -0.0925,0.6974 -0.13223,0.73205 -0.83919,0.73205 h -0.61755 l -0.20095,0.42903 c -0.13716,0.29284 -0.17535,0.4653 -0.1203,0.54328 0.0444,0.0628 0.22209,0.30603 0.39497,0.54042 l 0.31433,0.42617 -0.30105,0.36405 c -0.16558,0.20023 -0.3324,0.39704 -0.37071,0.43736 -0.0385,0.0405 -0.33081,-0.0678 -0.65373,-0.24217 l -0.58408,-0.31547 -0.39944,0.28155 c -0.33415,0.23553 -0.39281,0.31663 -0.35886,0.49616 0.0223,0.11804 0.0644,0.40832 0.0934,0.64507 l 0.0528,0.43045 -0.47921,0.18338 c -0.62548,0.23936 -0.56135,0.26356 -0.97215,-0.36695 -0.36965,-0.56736 -0.40624,-0.58627 -0.9582,-0.49506 -0.3032,0.0501 -0.33926,0.0893 -0.58283,0.63406 -0.28208,0.63086 -0.32514,0.65245 -0.98875,0.49579 z m 2.13357,-2.83572 c 2.65731,-0.69214 3.55682,-3.9205 1.6294,-5.84792 -2.02678,-2.02678 -5.42502,-0.90557 -5.9144,1.95139 -0.40992,2.39308 1.92066,4.51237 4.285,3.89653 z m -2.71713,-1.41772 c -0.39957,-0.19084 -0.33551,-0.87656 0.0953,-1.01991 0.32033,-0.1066 0.67889,0.14544 0.715,0.50259 0.0409,0.40495 -0.42402,0.70181 -0.81028,0.51732 z m 1.64007,-0.24257 c -0.11821,-0.73923 -0.757,-1.42392 -1.49326,-1.60055 l -0.42014,-0.10078 v -0.42162 -0.42162 l 0.27517,0.055 c 1.35359,0.27066 2.30822,1.20743 2.48134,2.43493 l 0.0567,0.40216 h -0.42212 -0.42213 z m 1.52014,0.24172 c -0.0179,-0.0582 -0.0549,-0.29324 -0.0824,-0.5223 -0.16855,-1.40765 -1.71765,-2.8432 -3.06811,-2.8432 h -0.28308 v -0.43499 -0.43499 l 0.47201,0.0555 c 2.00642,0.23581 3.76133,2.08573 3.76133,3.96496 v 0.32087 h -0.38366 c -0.23316,0 -0.3964,-0.0415 -0.41614,-0.10583 z m 10.31121,4.19201 c -0.59309,-0.034 -0.59949,-0.0416 -0.67948,-0.8069 -0.052,-0.49802 -0.0558,-0.5038 -0.42758,-0.66317 -0.50532,-0.21661 -0.49416,-0.21957 -1.00942,0.26775 l -0.45309,0.42851 -0.34027,-0.19123 c -0.63154,-0.35495 -0.65081,-0.41027 -0.38176,-1.09603 l 0.23508,-0.59918 -0.28528,-0.30986 c -0.1569,-0.17043 -0.29,-0.32136 -0.29577,-0.3354 -0.006,-0.014 -0.28617,0.0371 -0.62309,0.11379 -0.70955,0.16138 -0.73678,0.1481 -1.00949,-0.49233 l -0.17128,-0.4022 0.50881,-0.40213 c 0.45492,-0.35953 0.50393,-0.42791 0.46268,-0.64555 -0.0254,-0.13387 -0.0461,-0.33077 -0.0461,-0.43754 0,-0.16701 -0.0923,-0.22487 -0.66058,-0.41412 l -0.66057,-0.22 0.0353,-0.52779 c 0.0402,-0.6 0.0622,-0.62374 0.64675,-0.69766 0.66983,-0.0847 0.70356,-0.10677 0.85345,-0.55805 l 0.14072,-0.42366 -0.43675,-0.46179 -0.43674,-0.4618 0.19123,-0.34026 c 0.35491,-0.63147 0.41033,-0.65079 1.09552,-0.38196 l 0.59866,0.23487 0.26898,-0.24209 c 0.14794,-0.13314 0.30235,-0.26813 0.34313,-0.29996 0.0412,-0.0321 0.008,-0.32765 -0.0744,-0.66407 -0.17218,-0.7026 -0.1577,-0.73252 0.48711,-1.00711 l 0.40221,-0.17127 0.40213,0.50881 c 0.35953,0.45492 0.42791,0.50392 0.64554,0.46268 0.13388,-0.0254 0.3308,-0.0461 0.4376,-0.0461 0.16477,0 0.22258,-0.0866 0.38169,-0.5715 0.24898,-0.75887 0.23589,-0.7482 0.85653,-0.69882 l 0.5361,0.0426 0.0932,0.62218 c 0.099,0.66089 0.12279,0.69325 0.63459,0.86216 l 0.32857,0.10844 0.46488,-0.43966 c 0.51684,-0.48881 0.56845,-0.48807 1.18458,0.0169 l 0.25047,0.20528 -0.23921,0.6097 -0.23921,0.6097 0.24209,0.26898 c 0.13315,0.14794 0.26512,0.29934 0.29327,0.33644 0.0281,0.0371 0.32789,0.005 0.66608,-0.0724 0.71207,-0.16196 0.73896,-0.14889 1.01179,0.4918 l 0.17127,0.4022 -0.50574,0.40213 -0.50574,0.40213 0.0525,0.381 c 0.0665,0.48195 0.12047,0.53189 0.82243,0.76075 0.43181,0.14078 0.56509,0.21969 0.52917,0.3133 -0.0264,0.0688 -0.048,0.31179 -0.048,0.53993 0,0.46522 -0.008,0.47034 -0.86739,0.5755 l -0.44298,0.0542 -0.16021,0.44578 -0.16022,0.44579 0.43958,0.46479 0.43959,0.4648 -0.19124,0.34026 c -0.35491,0.63147 -0.41032,0.65079 -1.09551,0.38197 l -0.59867,-0.23488 -0.26897,0.24209 c -0.14794,0.13315 -0.30235,0.26813 -0.34314,0.29997 -0.0412,0.0321 -0.008,0.32764 0.0744,0.66407 0.17163,0.70035 0.16211,0.71984 -0.48989,1.00204 l -0.40498,0.17529 -0.39396,-0.50731 -0.39396,-0.50731 -0.38639,0.0546 c -0.48748,0.0689 -0.53717,0.12218 -0.76425,0.81884 -0.10245,0.31433 -0.1927,0.56416 -0.20054,0.55519 -0.008,-0.009 -0.24898,-0.0298 -0.53585,-0.0462 z m 1.17359,-2.91005 c 2.71227,-0.56746 3.68054,-3.99223 1.66242,-5.87995 -2.01074,-1.88081 -5.25114,-0.78759 -5.75394,1.94122 -0.42959,2.33147 1.74911,4.42881 4.09152,3.93873 z m -2.26279,-1.01191 c -0.42074,-0.12242 -0.81448,-0.59646 -0.86457,-1.04093 -0.0676,-0.59987 0.0279,-0.80032 0.72398,-1.52009 0.90094,-0.93152 1.35039,-1.09161 2.05521,-0.73204 0.42964,0.21919 0.48842,0.37366 0.24201,0.63596 -0.19223,0.20461 -0.19797,0.20535 -0.37055,0.0478 -0.44504,-0.40641 -0.76041,-0.29981 -1.55113,0.52429 -0.41908,0.43678 -0.52916,0.60668 -0.52916,0.81669 0,0.6047 0.73905,0.89671 1.18592,0.46858 0.1953,-0.18711 0.26913,-0.20571 0.62371,-0.15711 l 0.40219,0.0551 -0.32275,0.33653 c -0.52935,0.55197 -1.03025,0.72949 -1.59486,0.56523 z m 1.27212,-1.46829 c -0.1397,-0.0617 -0.32789,-0.19497 -0.4182,-0.29624 -0.16337,-0.18319 -0.16305,-0.18525 0.0622,-0.41051 0.20666,-0.20666 0.23575,-0.2141 0.33353,-0.0853 0.15785,0.20796 0.53919,0.32718 0.7633,0.23863 0.38787,-0.15326 1.36172,-1.24393 1.36172,-1.52507 0,-0.60982 -0.70209,-0.88718 -1.19526,-0.4722 -0.21433,0.18034 -0.2984,0.20078 -0.60826,0.14788 l -0.35956,-0.0614 0.45901,-0.43411 c 0.73037,-0.69076 1.5838,-0.67011 2.09709,0.0507 0.47918,0.67294 0.29094,1.3103 -0.65675,2.22373 -0.78253,0.75424 -1.2127,0.90017 -1.83883,0.6238 z m -22.606,-3.06814 c -0.0931,-0.0185 -0.3836,-0.0752 -0.64548,-0.12596 l -0.47614,-0.0923 -0.0523,-0.4352 c -0.0288,-0.23936 -0.0526,-0.65427 -0.053,-0.92203 -4.2e-4,-0.28687 -0.0377,-0.48683 -0.0907,-0.48683 -0.0495,0 -0.29996,-0.10281 -0.55658,-0.22846 -0.31668,-0.15507 -0.50168,-0.20267 -0.57586,-0.14817 -0.0601,0.0442 -0.38582,0.27941 -0.72381,0.52277 l -0.61453,0.44247 -0.20873,-0.16419 c -0.98329,-0.77345 -0.97916,-0.75692 -0.43706,-1.7497 l 0.33069,-0.60561 -0.35775,-0.51843 -0.35774,-0.51842 -0.51148,0.0642 c -0.28132,0.0353 -0.68029,0.0649 -0.8866,0.0657 l -0.37511,0.001 -0.18475,-0.46566 c -0.35551,-0.89608 -0.37672,-0.83248 0.45723,-1.37063 l 0.74305,-0.4795 -0.0651,-0.60896 c -0.0358,-0.33493 -0.0764,-0.61589 -0.0903,-0.62435 -0.0139,-0.008 -0.35973,-0.16177 -0.76852,-0.34068 -0.40881,-0.1789 -0.75832,-0.34963 -0.77672,-0.37939 -0.0376,-0.0608 0.17613,-1.35786 0.23316,-1.41488 0.0202,-0.0202 0.42515,-0.0603 0.89998,-0.0892 l 0.86332,-0.0526 0.2486,-0.49247 c 0.31711,-0.62818 0.33408,-0.54276 -0.26611,-1.33927 l -0.5147,-0.68306 0.25284,-0.31698 c 0.13907,-0.17434 0.37374,-0.43128 0.52151,-0.57098 l 0.26866,-0.254 0.75883,0.40252 0.75883,0.40252 0.50652,-0.3572 0.50651,-0.35721 -0.0642,-0.51098 c -0.0353,-0.28104 -0.0648,-0.67979 -0.0657,-0.8861 l -0.001,-0.37511 0.46567,-0.18475 c 0.89641,-0.35564 0.83733,-0.37444 1.3517,0.4301 0.45185,0.70674 0.46282,0.71653 0.80204,0.71561 0.85592,-0.002 0.90972,-0.0359 1.21677,-0.75948 0.4177,-0.98435 0.36309,-0.94589 1.14652,-0.80749 0.36559,0.0646 0.6818,0.13451 0.70269,0.1554 0.0209,0.0209 0.0606,0.43297 0.0883,0.91574 l 0.0503,0.87776 0.51703,0.23387 c 0.64613,0.29227 0.51636,0.32015 1.31668,-0.28291 l 0.68306,-0.5147 0.31698,0.25284 c 0.17435,0.13907 0.43129,0.3736 0.57099,0.52117 l 0.254,0.26833 -0.40167,0.75005 -0.40167,0.75006 0.35585,0.51568 0.35585,0.51569 0.51149,-0.0643 c 0.28131,-0.0353 0.68028,-0.0649 0.88659,-0.0657 l 0.37511,-0.001 0.18475,0.46566 c 0.35564,0.89642 0.37444,0.83734 -0.43009,1.35171 l -0.71655,0.45811 v 0.39684 c 0,0.76206 0.0622,0.89471 0.4958,1.05726 0.86962,0.32601 1.20228,0.53735 1.1625,0.73858 -0.0205,0.10368 -0.0823,0.42182 -0.13741,0.70698 l -0.10015,0.51847 -0.4352,0.0523 c -0.23936,0.0288 -0.63468,0.0526 -0.87849,0.053 l -0.44328,7.6e-4 -0.25522,0.50559 c -0.323,0.63987 -0.3297,0.5879 0.1562,1.21073 0.66149,0.84788 0.65587,0.80083 0.16471,1.37855 -0.54058,0.63584 -0.52604,0.63402 -1.37864,0.17303 l -0.71382,-0.38596 -0.51404,0.35471 -0.51403,0.35472 0.0642,0.51148 c 0.0353,0.28132 0.0649,0.68028 0.0657,0.8866 l 0.001,0.37511 -0.46567,0.18475 c -0.89693,0.35584 -0.83687,0.37516 -1.35545,-0.43596 l -0.46186,-0.7224 -0.61706,0.027 -0.61706,0.027 -0.35812,0.79764 c -0.36597,0.81513 -0.40283,0.85741 -0.69678,0.79904 z m 2.33413,-3.89221 c 3.43738,-1.02044 4.5449,-5.2363 2.03496,-7.74623 -2.91737,-2.91738 -7.88276,-0.85858 -7.88276,3.26842 0,2.08791 1.26571,3.7954 3.302,4.4545 0.6126,0.19829 1.91619,0.21022 2.5458,0.0233 z m 0.30173,-2.05356 -0.74727,-0.75075 -0.41603,0.15809 c -2.19882,0.83548 -4.30612,-1.41181 -3.30607,-3.52569 0.90699,-1.91718 3.59487,-1.98351 4.63021,-0.11428 0.31856,0.57515 0.3613,1.65296 0.0895,2.25674 l -0.16181,0.35942 0.73331,0.74937 c 0.80048,0.81804 0.91089,1.1016 0.56397,1.44852 -0.33321,0.3332 -0.5774,0.23075 -1.38581,-0.58142 z m -1.36513,-1.35448 c 0.98301,-0.44658 1.36424,-1.74014 0.77517,-2.63028 -1.00779,-1.52287 -3.35452,-0.84579 -3.35452,0.96784 0,1.32961 1.3693,2.21215 2.57935,1.66244 z m 0.42185,-2.12931 c -0.26419,-0.42748 -1.44239,-0.58564 -2.06455,-0.27714 l -0.37196,0.18444 0.28433,-0.29335 c 0.62144,-0.64116 1.77099,-0.52067 2.15716,0.2261 0.11809,0.22837 0.11422,0.35281 -0.005,0.15995 z m 29.08376,6.62021 -0.635,-0.142 -0.0536,-0.55034 c -0.0295,-0.30268 -0.0584,-0.81703 -0.0643,-1.143 l -0.0107,-0.59266 -0.72329,-0.33074 -0.7233,-0.33075 -0.22842,0.17747 c -1.67128,1.29839 -1.55389,1.27895 -2.50689,0.41515 l -0.58034,-0.526 0.52219,-1.00476 0.52218,-1.00475 -0.44061,-0.64514 c -0.24234,-0.35483 -0.4437,-0.64956 -0.44746,-0.65496 -0.004,-0.005 -0.34974,0.0397 -0.76884,0.10025 -0.4191,0.0605 -0.93538,0.11258 -1.14728,0.11565 l -0.38529,0.006 -0.19573,-0.52917 c -0.10764,-0.29104 -0.24728,-0.69279 -0.3103,-0.89278 l -0.11458,-0.36361 0.97361,-0.64022 c 0.7097,-0.46669 0.96317,-0.67795 0.93513,-0.77939 -0.0212,-0.0765 -0.063,-0.42587 -0.093,-0.77628 l -0.0545,-0.63713 -0.9894,-0.42121 c -0.90381,-0.38478 -0.99177,-0.44194 -1.01684,-0.66088 -0.0296,-0.25818 0.21373,-1.58456 0.30858,-1.68227 0.0317,-0.0326 0.55418,-0.0855 1.16118,-0.11753 l 1.10363,-0.0583 0.32727,-0.71127 0.32726,-0.71127 -0.26796,-0.35653 c -1.22585,-1.63099 -1.19946,-1.43086 -0.316,-2.39602 l 0.51774,-0.56562 1.00318,0.52137 1.00318,0.52136 0.66571,-0.44647 c 0.36614,-0.24556 0.6518,-0.48675 0.63479,-0.53596 -0.076,-0.2201 -0.23968,-1.97584 -0.195,-2.09228 0.0274,-0.0713 0.3477,-0.24289 0.71183,-0.3812 1.14699,-0.43569 1.0068,-0.48514 1.69357,0.59743 0.43478,0.68537 0.64596,0.94597 0.75909,0.93675 0.0862,-0.007 0.44332,-0.038 0.79359,-0.0689 l 0.63686,-0.0561 0.42302,-0.98942 c 0.49286,-1.15276 0.48019,-1.14614 1.68993,-0.88284 l 0.67734,0.14742 0.0543,0.508 c 0.0299,0.2794 0.0588,0.79375 0.0643,1.143 l 0.01,0.635 0.72329,0.33075 0.72329,0.33074 0.22843,-0.17746 c 1.67128,-1.2984 1.55388,-1.27896 2.50689,-0.41516 l 0.58033,0.52601 -0.52334,1.00696 -0.52333,1.00697 0.22391,0.30426 c 0.12316,0.16735 0.32501,0.46662 0.44857,0.66505 0.12355,0.19844 0.26493,0.34533 0.31418,0.32643 0.19969,-0.0766 1.97176,-0.2447 2.09231,-0.19844 0.13136,0.0504 0.61395,1.19642 0.66768,1.58556 0.0255,0.18501 -0.0721,0.2775 -0.77511,0.73446 -1.19128,0.77431 -1.09322,0.62519 -0.99518,1.51341 l 0.0846,0.76621 0.98447,0.41913 c 0.83227,0.35433 0.98895,0.45077 1.01339,0.62381 0.0337,0.23844 -0.23395,1.68622 -0.32174,1.74048 -0.0327,0.0202 -0.55305,0.0628 -1.1563,0.0947 l -1.09682,0.0579 -0.32726,0.71127 -0.32727,0.71127 0.26797,0.35653 c 1.22626,1.63154 1.20011,1.43015 0.31173,2.40068 l -0.52199,0.57027 -0.99819,-0.52881 -0.99819,-0.5288 -0.64776,0.44242 c -0.35627,0.24333 -0.65154,0.4455 -0.65616,0.44926 -0.005,0.004 0.0405,0.36879 0.10021,0.81117 0.18873,1.39787 0.18489,1.42002 -0.28231,1.6272 -0.22119,0.0981 -0.61909,0.2442 -0.88422,0.32469 -0.57477,0.17451 -0.49879,0.23204 -1.2361,-0.93589 -0.36273,-0.57458 -0.55262,-0.80068 -0.66481,-0.79154 -0.0864,0.007 -0.44374,0.038 -0.79416,0.0689 l -0.63712,0.0562 -0.42121,0.98939 -0.42121,0.9894 -0.33867,0.015 c -0.18627,0.008 -0.62442,-0.0489 -0.97367,-0.127 z m 3.43618,-4.79739 c 3.17777,-0.60801 5.34229,-3.91683 4.64234,-7.09656 -1.01675,-4.61891 -6.68028,-6.27601 -10.03684,-2.9367 -4.16467,4.14324 -0.40158,11.14223 5.3945,10.03326 z m -5.21121,-3.59405 c -0.23305,-0.43547 -0.21904,-0.43896 1.58453,-0.39419 0.91969,0.0228 1.99106,0.0655 2.38083,0.0948 0.46365,0.0349 0.74028,0.0217 0.8001,-0.0381 0.16191,-0.16192 3.35957,-0.12277 3.35957,0.0411 0,0.48045 0.18162,0.4601 -4.10634,0.4601 -3.79985,0 -3.93396,-0.005 -4.01869,-0.16377 z m 0.62501,-0.88231 c -0.11511,-0.29997 0.007,-4.20966 0.13402,-4.28982 0.2409,-0.15208 6.4005,-0.10483 6.55562,0.0503 0.11383,0.11384 0.13304,0.43781 0.13304,2.24367 v 2.11062 h -3.38932 c -2.77382,0 -3.39732,-0.0208 -3.43336,-0.11475 z m 6.29527,-2.15009 0.0229,-1.7145 h -2.92275 -2.92276 v 1.67923 c 0,0.92357 0.0259,1.70512 0.0575,1.73677 0.0316,0.0317 1.33658,0.0475 2.89984,0.0353 l 2.84228,-0.0223 z m -25.03932,1.19035 c -1.31574,-0.23373 -1.30645,-0.22752 -1.36792,-0.91518 -0.0291,-0.32597 -0.0585,-0.95462 -0.0652,-1.397 l -0.0122,-0.80433 -0.90172,-0.4308 -0.90171,-0.43081 -1.10248,0.83297 c -0.60635,0.45814 -1.12867,0.83297 -1.1607,0.83297 -0.0875,0 -0.95359,-0.68612 -1.43803,-1.13925 -0.51156,-0.47851 -0.51996,-0.42282 0.29312,-1.94373 l 0.53923,-1.00865 -0.55598,-0.81169 c -0.30579,-0.44642 -0.55868,-0.81515 -0.56197,-0.81939 -0.003,-0.004 -0.52033,0.0601 -1.14898,0.14293 -1.67652,0.22094 -1.66486,0.22194 -1.82783,-0.15639 -0.22049,-0.51188 -0.6275,-1.73428 -0.6275,-1.88463 0,-0.12092 1.1709,-0.95056 2.09992,-1.48789 0.21036,-0.12167 0.26817,-0.20371 0.23349,-0.33134 -0.0254,-0.0933 -0.0709,-0.53724 -0.10125,-0.98653 l -0.0552,-0.8169 -0.60166,-0.23499 c -0.33092,-0.12925 -0.92029,-0.381 -1.30971,-0.55945 l -0.70804,-0.32445 0.056,-0.40166 c 0.11497,-0.82435 0.3278,-1.80189 0.41905,-1.92474 0.0738,-0.0993 0.39078,-0.13909 1.45255,-0.18231 l 1.35822,-0.0553 0.42281,-0.89765 0.4228,-0.89766 -0.82826,-1.10066 c -0.45554,-0.60537 -0.82838,-1.12542 -0.82852,-1.15567 -4.2e-4,-0.0975 0.62162,-0.88611 1.08762,-1.37879 0.54008,-0.57098 0.45889,-0.58077 1.9951,0.24049 l 1.00865,0.53922 0.81169,-0.55597 c 0.44642,-0.30579 0.81696,-0.55868 0.82342,-0.56197 0.006,-0.003 -0.0392,-0.34684 -0.10147,-0.76344 -0.0623,-0.41661 -0.13851,-1.04765 -0.16945,-1.40232 l -0.0563,-0.64486 0.49638,-0.21914 c 0.70545,-0.31144 1.68184,-0.60914 1.81911,-0.55465 0.0641,0.0255 0.44046,0.56521 0.83627,1.19943 0.59999,0.96137 0.74783,1.14605 0.889,1.11056 0.0931,-0.0234 0.53356,-0.0672 0.97873,-0.0972 l 0.80939,-0.0547 0.53384,-1.26472 c 0.29362,-0.6956 0.58102,-1.28283 0.63867,-1.30495 0.13352,-0.0512 1.60866,0.18434 2.04364,0.32636 0.37886,0.12369 0.426,0.34011 0.44761,2.05498 l 0.0107,0.84667 0.91584,0.43085 0.91583,0.43084 0.45923,-0.36776 c 0.25257,-0.20226 0.75543,-0.58157 1.11745,-0.8429 l 0.65822,-0.47514 0.31544,0.21316 c 0.44184,0.29858 1.49543,1.25076 1.52693,1.37996 0.0144,0.059 -0.25625,0.65305 -0.6014,1.32013 l -0.62755,1.21286 0.50213,0.71967 c 0.27617,0.39581 0.52775,0.76291 0.55907,0.81576 0.0422,0.0712 0.25304,0.0669 0.8144,-0.0168 0.4166,-0.0621 1.0523,-0.13862 1.41266,-0.17006 l 0.6552,-0.0572 0.14113,0.32795 c 0.22446,0.52157 0.63188,1.74348 0.63188,1.89509 0,0.12092 -1.1709,0.95056 -2.09992,1.48789 -0.21036,0.12166 -0.26817,0.20371 -0.2335,0.33134 0.0254,0.0933 0.0706,0.53283 0.10061,0.97673 l 0.0545,0.8071 1.27965,0.55117 1.27964,0.55116 -0.0165,0.3774 c -0.0233,0.53485 -0.2817,1.82962 -0.39571,1.98315 -0.0756,0.10183 -0.38213,0.14068 -1.45403,0.18432 l -1.35822,0.0553 -0.42729,0.9041 -0.4273,0.9041 0.36776,0.45922 c 0.20226,0.25258 0.58088,0.75447 0.84137,1.11532 l 0.47361,0.6561 -0.16023,0.25307 c -0.0881,0.13919 -0.42527,0.5568 -0.74919,0.92802 -0.70488,0.80778 -0.59089,0.8073 -2.10226,0.009 l -1.08996,-0.57581 -0.81504,0.55012 c -0.44827,0.30256 -0.82032,0.55494 -0.82677,0.56083 -0.007,0.006 0.0365,0.33457 0.0955,0.73038 0.059,0.39582 0.13472,1.0319 0.1683,1.41352 l 0.0611,0.69386 -0.3259,0.14027 c -0.51967,0.22368 -1.74167,0.63102 -1.89303,0.63102 -0.12092,0 -0.95056,-1.1709 -1.48789,-2.09992 -0.12167,-0.21036 -0.20371,-0.26817 -0.33135,-0.23349 -0.0933,0.0254 -0.53723,0.0709 -0.98653,0.10124 l -0.81689,0.0552 -0.2358,0.60167 c -0.12968,0.33092 -0.38089,0.916 -0.55822,1.30017 -0.36643,0.7938 -0.27677,0.75878 -1.42192,0.55535 z m 3.59168,-6.08151 c 4.50771,-0.78608 7.28487,-5.44839 5.80998,-9.75382 -1.75614,-5.12646 -8.20673,-6.76292 -12.13347,-3.07817 -3.18166,2.98558 -3.25098,7.6998 -0.1582,10.75932 1.78958,1.77034 4.0572,2.49547 6.48169,2.07267 z m -5.28762,-6.26367 v -2.49767 h -0.65571 -0.65572 l 0.99438,-0.99438 0.99439,-0.99438 0.99438,0.99438 0.99438,0.99438 h -0.6151 -0.6151 l 0.0229,1.75684 0.0229,1.75683 1.64101,0.0118 1.64102,0.0118 0.72905,0.72905 0.72904,0.72905 h -3.11089 -3.1109 z m 6.94267,1.43933 -0.9709,-0.97366 h 0.61245 0.61245 v -1.73567 -1.73567 h -1.6316 -1.6316 l -0.75847,-0.762 -0.75847,-0.762 h 3.10974 3.10973 v 2.49767 2.49767 h 0.65479 0.65479 l -0.97091,0.97366 c -0.534,0.53552 -0.9912,0.97367 -1.016,0.97367 -0.0248,0 -0.482,-0.43815 -1.016,-0.97367 z"
       id="path1397" />
  </g>
</svg>
