<svg width="458" height="458" viewBox="0 0 121.19 121.17" xmlns="http://www.w3.org/2000/svg"><g color="#000" font-weight="400" font-family="sans-serif" fill="#e66a49"><path style="line-height:normal;font-variant-ligatures:normal;font-variant-position:normal;font-variant-caps:normal;font-variant-numeric:normal;font-variant-alternates:normal;font-variant-east-asian:normal;font-feature-settings:normal;font-variation-settings:normal;text-indent:0;text-align:start;text-decoration-line:none;text-decoration-style:solid;text-decoration-color:#000;text-transform:none;text-orientation:mixed;white-space:normal;shape-padding:0;shape-margin:0;inline-size:0;isolation:auto;mix-blend-mode:normal;solid-color:#000;solid-opacity:1" d="M9.96.27h-.3C3.1.53.31 2.54.31 2.54l-.02 7.8H.26V68l6.03-26.15h42.24v-2.83H22.64l-1.93-5.08-18.66-.06V22.62a29.1 29.1 0 0 1 8.79-1.5c5.37.05 6.2 7.33 12.75 7.08s9.34-2.27 9.34-2.27l.05-20.72s-5.2 2.18-10.57 2.14C17.11 7.31 16.23.25 9.96.27Z" overflow="visible" transform="translate(32.16 26.45)"/><path style="line-height:normal;font-variant-ligatures:normal;font-variant-position:normal;font-variant-caps:normal;font-variant-numeric:normal;font-variant-alternates:normal;font-variant-east-asian:normal;font-feature-settings:normal;font-variation-settings:normal;text-indent:0;text-align:start;text-decoration-line:none;text-decoration-style:solid;text-decoration-color:#000;text-transform:none;text-orientation:mixed;white-space:normal;shape-padding:0;shape-margin:0;inline-size:0;isolation:auto;mix-blend-mode:normal;solid-color:#000;solid-opacity:1" d="M7.55 43.27 1.77 68h49.04l5.79-24.73Z" overflow="visible" transform="translate(32.16 26.45)"/></g></svg>