<?xml version="1.0" encoding="UTF-8" standalone="no"?>
<svg
   width="173.22562mm"
   height="173.2733mm"
   viewBox="0 0 173.22561 173.2733"
   version="1.1"
   id="svg1017"
   xmlns:xlink="http://www.w3.org/1999/xlink"
   xmlns="http://www.w3.org/2000/svg"
   xmlns:svg="http://www.w3.org/2000/svg">
  <defs
     id="defs1021">
    <linearGradient
       id="linearGradient2234">
      <stop
         style="stop-color:#00264d;stop-opacity:1;"
         offset="0"
         id="stop2230" />
      <stop
         style="stop-color:#107fc9;stop-opacity:1;"
         offset="1"
         id="stop2232" />
    </linearGradient>
    <linearGradient
       xlink:href="#linearGradient2234"
       id="linearGradient2236"
       x1="28.0784"
       y1="-10.679279"
       x2="196.05646"
       y2="149.17937"
       gradientUnits="userSpaceOnUse"
       gradientTransform="translate(-15.204971,-8.1725479)" />
  </defs>
  <path
     id="path987"
     d="M 95.046699,0.00214688 A 16.570727,16.570727 0 0 0 78.23377,15.669408 16.570727,16.570727 0 1 0 111.32581,17.471882 16.570727,16.570727 0 0 0 95.046699,0.00214688 Z M 76.813702,19.511034 29.565423,43.455308 a 18.2278,18.2278 0 0 1 4.972306,9.812321 L 81.785491,29.322321 a 18.2278,18.2278 0 0 1 -4.971789,-9.811287 z m 34.114198,5.476668 a 18.2278,18.2278 0 0 1 -7.79746,7.760766 l 37.37653,37.520708 a 18.2278,18.2278 0 0 1 7.79694,-7.760767 z m -28.957924,4.526339 -27.643791,53.967248 8.161776,8.193298 29.269018,-57.138631 a 18.2278,18.2278 0 0 1 -9.787003,-5.021915 z m 21.074164,3.277836 a 18.2278,18.2278 0 0 1 -10.851011,1.812292 l 4.18527,26.799915 11.419971,1.832446 z m -86.206106,6.84661 A 16.570677,16.570677 0 0 0 0.02458975,55.305748 16.570803,16.570803 0 1 0 33.117144,57.108222 16.570677,16.570677 0 0 0 16.838034,39.638487 Z m 17.733285,13.830164 a 18.2278,18.2278 0 0 1 -1.693954,10.868587 l 26.820586,4.307747 5.271512,-10.294462 z m 45.967737,7.381978 -5.27203,10.295496 63.371324,10.177673 a 18.2278,18.2278 0 0 1 1.76062,-10.859285 z m 76.382934,1.266589 A 16.570677,16.570677 0 0 0 140.10906,77.784479 16.570677,16.570677 0 1 0 173.2011,79.586953 16.570677,16.570677 0 0 0 156.92199,62.117218 Z M 32.719236,64.624042 a 18.2278,18.2278 0 0 1 -7.795907,7.759733 l 42.798421,42.965335 10.318233,-5.22914 z m -8.033619,7.879623 a 18.2278,18.2278 0 0 1 -10.865486,1.719791 l 8.176245,52.298094 a 18.2278,18.2278 0 0 1 10.864453,-1.71979 z m 74.125192,4.480863 9.895521,63.363052 a 18.2278,18.2278 0 0 1 10.87996,-1.6278 L 110.2313,78.816458 Z m 39.878191,4.640027 -24.22953,12.279357 1.78645,11.427208 27.41487,-13.894244 A 18.2278,18.2278 0 0 1 138.689,81.624555 Z m 5.15575,10.003524 -24.13496,47.117531 a 18.2278,18.2278 0 0 1 9.78804,5.02244 l 24.13444,-47.117018 a 18.2278,18.2278 0 0 1 -9.78752,-5.022953 z M 47.136443,97.517642 33.134197,124.85292 a 18.2278,18.2278 0 0 1 9.785966,5.0214 l 12.377539,-24.1639 z m 53.257217,3.514508 -57.289012,29.03389 a 18.2278,18.2278 0 0 1 4.972823,9.81335 l 54.102639,-27.41951 z m -11.222061,20.26233 -10.318229,5.22914 21.68602,21.77077 a 18.2278,18.2278 0 0 1 7.79745,-7.76077 z m -58.793823,4.95526 a 16.570677,16.570677 0 0 0 -16.812927,15.66726 16.570677,16.570677 0 1 0 33.092037,1.80299 16.570677,16.570677 0 0 0 -16.27911,-17.47025 z m 17.743103,13.88855 a 18.2278,18.2278 0 0 1 -1.732194,10.86291 l 52.289314,8.3907 A 18.2278,18.2278 0 0 1 100.4102,148.529 Z m 68.833521,0.004 a 16.570677,16.570677 0 0 0 -16.81292,15.66726 16.570803,16.570803 0 0 0 33.09255,1.80247 16.570677,16.570677 0 0 0 -16.27963,-17.46973 z"
     style="fill:url(#linearGradient2236);fill-opacity:1" />
</svg>
