<?xml version="1.0" encoding="UTF-8" standalone="no"?>
<!-- Created with Inkscape (http://www.inkscape.org/) -->

<svg
   width="117.00714mm"
   height="96.818527mm"
   viewBox="0 0 117.00714 96.818527"
   version="1.1"
   id="svg5"
   inkscape:version="1.1 (1:1.1+202105261517+ce6663b3b7)"
   sodipodi:docname="repeat-bg.svg"
   xmlns:inkscape="http://www.inkscape.org/namespaces/inkscape"
   xmlns:sodipodi="http://sodipodi.sourceforge.net/DTD/sodipodi-0.dtd"
   xmlns="http://www.w3.org/2000/svg"
   xmlns:svg="http://www.w3.org/2000/svg">
  <sodipodi:namedview
     id="namedview7"
     pagecolor="#ffffff"
     bordercolor="#666666"
     borderopacity="1.0"
     inkscape:pageshadow="2"
     inkscape:pageopacity="0.0"
     inkscape:pagecheckerboard="0"
     inkscape:document-units="mm"
     showgrid="false"
     inkscape:zoom="0.46992642"
     inkscape:cx="251.10314"
     inkscape:cy="410.70259"
     inkscape:window-width="1680"
     inkscape:window-height="1013"
     inkscape:window-x="0"
     inkscape:window-y="0"
     inkscape:window-maximized="1"
     inkscape:current-layer="layer1" />
  <defs
     id="defs2">
	
</defs>
  <g
     inkscape:label="Layer 1"
     inkscape:groupmode="layer"
     id="layer1"
     transform="translate(-0.42070442,-1.6424013)">
    <g
       id="Logo_1_"
       transform="matrix(0.06770544,0,0,0.06766528,7.0348249,31.509186)"
       style="opacity:1;fill:#f8f9fe;fill-opacity:0.15;stroke:none;stroke-width:7.38712;stroke-miterlimit:4;stroke-dasharray:none;stroke-opacity:0.502574">
	<path
   id="white_background"
   class="st0"
   d="m 221.95,51.29 c 0.15,2.17 0.15,4.34 0.15,6.53 0,66.73 -50.8,143.69 -143.69,143.69 v -0.04 C 50.97,201.51 24.1,193.65 1,178.83 c 3.99,0.48 8,0.72 12.02,0.73 22.74,0.02 44.83,-7.61 62.72,-21.66 -21.61,-0.41 -40.56,-14.5 -47.18,-35.07 7.57,1.46 15.37,1.16 22.8,-0.87 C 27.8,117.2 10.85,96.5 10.85,72.46 c 0,-0.22 0,-0.43 0,-0.64 7.02,3.91 14.88,6.08 22.92,6.32 C 11.58,63.31 4.74,33.79 18.14,10.71 c 25.64,31.55 63.47,50.73 104.08,52.76 -4.07,-17.54 1.49,-35.92 14.61,-48.25 20.34,-19.12 52.33,-18.14 71.45,2.19 11.31,-2.23 22.15,-6.38 32.07,-12.26 -3.77,11.69 -11.66,21.62 -22.2,27.93 10.01,-1.18 19.79,-3.86 29,-7.95 -6.78,10.16 -15.32,19.01 -25.2,26.16 z"
   style="fill:#f8f9fe;fill-opacity:0.15;stroke:none;stroke-width:7.38712;stroke-miterlimit:4;stroke-dasharray:none;stroke-opacity:0.502574" />

</g>
    <g
       id="g2633"
       transform="matrix(0.00310957,0,0,-0.00310957,7.6017331,69.884284)"
       style="opacity:1;fill:#f8f9fe;fill-opacity:0.15;stroke-width:11.3449">
      <path
         d="m 2519.21,5038.41 c -684.18,0 -769.97,-2.9 -1038.67,-15.16 C 1212.4,5011.02 1029.27,4968.43 869.027,4906.16 703.367,4841.78 562.879,4755.64 422.824,4615.59 282.773,4475.54 196.633,4335.04 132.254,4169.38 69.9805,4009.14 27.3945,3826.01 15.1563,3557.87 2.89844,3289.17 0,3203.38 0,2519.2 0,1835.03 2.89844,1749.24 15.1563,1480.54 27.3945,1212.4 69.9805,1029.27 132.254,869.031 196.633,703.371 282.773,562.879 422.824,422.82 562.879,282.77 703.367,196.629 869.027,132.25 1029.27,69.9805 1212.4,27.3906 1480.54,15.1602 1749.24,2.90234 1835.03,0 2519.21,0 c 684.17,0 769.96,2.90234 1038.66,15.1602 268.14,12.2304 451.27,54.8203 611.51,117.0898 165.66,64.379 306.15,150.52 446.21,290.57 140.05,140.059 226.19,280.551 290.57,446.211 62.27,160.239 104.86,343.369 117.09,611.509 12.26,268.7 15.16,354.49 15.16,1038.66 0,684.18 -2.9,769.97 -15.16,1038.67 -12.23,268.14 -54.82,451.27 -117.09,611.51 -64.38,165.66 -150.52,306.16 -290.57,446.21 -140.06,140.05 -280.55,226.19 -446.21,290.57 -160.24,62.27 -343.37,104.86 -611.51,117.09 -268.7,12.26 -354.49,15.16 -1038.66,15.16 z m 0,-453.91 c 672.65,0 752.33,-2.57 1017.97,-14.69 245.62,-11.2 379.01,-52.24 467.78,-86.74 117.59,-45.7 201.51,-100.29 289.66,-188.44 88.16,-88.16 142.75,-172.08 188.45,-289.67 34.5,-88.77 75.54,-222.16 86.74,-467.78 12.12,-265.64 14.69,-345.32 14.69,-1017.98 0,-672.65 -2.57,-752.33 -14.69,-1017.97 -11.2,-245.62 -52.24,-379.01 -86.74,-467.78 -45.7,-117.591 -100.29,-201.509 -188.45,-289.661 -88.15,-88.16 -172.07,-142.75 -289.66,-188.449 -88.77,-34.5 -222.16,-75.539 -467.78,-86.738 -265.6,-12.122 -345.27,-14.692 -1017.97,-14.692 -672.71,0 -752.37,2.57 -1017.98,14.692 -245.62,11.199 -379.01,52.238 -467.78,86.738 -117.591,45.699 -201.509,100.289 -289.661,188.449 -88.152,88.152 -142.75,172.07 -188.449,289.661 -34.5,88.77 -75.535,222.16 -86.742,467.78 -12.121,265.64 -14.688,345.32 -14.688,1017.97 0,672.66 2.567,752.34 14.688,1017.98 11.207,245.62 52.242,379.01 86.742,467.78 45.699,117.59 100.293,201.51 188.445,289.66 88.156,88.16 172.074,142.75 289.665,188.45 88.77,34.5 222.16,75.54 467.78,86.74 265.64,12.12 345.32,14.69 1017.98,14.69"
         style="fill:#f8f9fe;fill-opacity:0.15;fill-rule:nonzero;stroke:none;stroke-width:27.5057"
         id="path2635" />
      <path
         d="m 2519.21,1679.47 c -463.78,0 -839.74,375.96 -839.74,839.73 0,463.78 375.96,839.74 839.74,839.74 463.77,0 839.73,-375.96 839.73,-839.74 0,-463.77 -375.96,-839.73 -839.73,-839.73 z m 0,2133.38 c -714.47,0 -1293.65,-579.18 -1293.65,-1293.65 0,-714.46 579.18,-1293.64 1293.65,-1293.64 714.46,0 1293.64,579.18 1293.64,1293.64 0,714.47 -579.18,1293.65 -1293.64,1293.65"
         style="fill:#f8f9fe;fill-opacity:0.15;fill-rule:nonzero;stroke:none;stroke-width:27.5057"
         id="path2637" />
      <path
         d="m 4166.27,3863.96 c 0,-166.96 -135.35,-302.3 -302.31,-302.3 -166.95,0 -302.3,135.34 -302.3,302.3 0,166.96 135.35,302.31 302.3,302.31 166.96,0 302.31,-135.35 302.31,-302.31"
         style="fill:#f8f9fe;fill-opacity:0.15;fill-rule:nonzero;stroke:none;stroke-width:27.5057"
         id="path2639" />
    </g>
    <path
       d="m 20.51331,90.803488 h -2.137368 v -3.34721 c 0,-0.798853 -0.01522,-1.825274 -1.111877,-1.825274 -1.11284,0 -1.282806,0.868971 -1.282806,1.766736 v 3.405748 h -2.137048 v -6.883507 h 2.050343 v 0.940065 h 0.02973 c 0.285843,-0.540913 0.9839,-1.111556 2.024377,-1.111556 2.164936,0 2.56465,1.425494 2.56465,3.279562 z m -9.081571,-7.825097 c -0.687081,0 -1.241135,-0.555578 -1.241135,-1.240817 0,-0.683953 0.554054,-1.239934 1.241135,-1.239934 0.684596,0 1.240174,0.555981 1.240174,1.239934 0,0.685239 -0.555578,1.240817 -1.240174,1.240817 z m 1.070207,7.825097 h -2.141695 v -6.883507 h 2.141695 z M 21.57919,78.511809 H 9.2865177 c -0.5859489,0 -1.0633159,0.465746 -1.0633159,1.039274 v 12.344873 c 0,0.575037 0.477367,1.039885 1.0633159,1.039885 H 21.57919 c 0.588514,0 1.068363,-0.464848 1.068363,-1.039885 V 79.551083 c 0,-0.573528 -0.479849,-1.039274 -1.068363,-1.039274"
       style="opacity:1;fill:#f8f9fe;fill-opacity:0.15;fill-rule:nonzero;stroke:none;stroke-width:0.0352779"
       id="path2941" />
    <g
       style="opacity:1;fill:#f8f9fe;fill-opacity:0.15;stroke-width:1.92479"
       id="g4363"
       transform="matrix(0.13746093,0,0,0.13746093,8.5623309,7.8312393)">
      <g
         id="g4348"
         style="fill:#f8f9fe;fill-opacity:0.15;stroke-width:1.92479">
        <polygon
           points="73.611,52.777 79.167,52.777 79.167,41.667 20.833,41.667 20.833,52.777 26.389,52.777 26.389,50.643 50,44.347 73.611,50.643 "
           id="polygon4336"
           style="fill:#f8f9fe;fill-opacity:0.15;stroke-width:1.92479" />
        <path
           d="M 70.833,91.667 V 59.724 56.946 56.945 52.778 L 50,47.223 29.167,52.778 v 4.167 10e-4 2.778 31.943 H 37.5 V 59.724 h 8.333 v 31.943 h 8.334 V 59.724 H 62.5 v 31.943 z"
           id="path4338"
           style="fill:#f8f9fe;fill-opacity:0.15;stroke-width:1.92479" />
        <path
           d="m 66.667,36.111 c 0,-10e-4 0,-10e-4 0,-10e-4 0,-8.256 -6.009,-15.092 -13.89,-16.417 v -3.721 c 0,-0.384 -0.311,-0.694 -0.694,-0.694 h -0.694 v -3.594 c 4.894,2.449 8.925,-1.771 15.278,0.768 V 2.778 C 60.313,0.239 56.282,4.459 51.389,2.01 V 1.389 C 51.389,0.621 50.768,0 50,0 49.232,0 48.611,0.621 48.611,1.389 v 13.889 h -0.694 c -0.384,0 -0.694,0.311 -0.694,0.694 v 3.721 c -7.881,1.325 -13.89,8.161 -13.89,16.417 0,0 0,0 0,10e-4 v 2.777 h 33.334 z"
           id="path4340"
           style="fill:#f8f9fe;fill-opacity:0.15;stroke-width:1.92479" />
        <polygon
           points="20.833,100 79.167,100 73.611,94.444 26.389,94.444 "
           id="polygon4342"
           style="fill:#f8f9fe;fill-opacity:0.15;stroke-width:1.92479" />
        <path
           d="m 73.611,55.556 v 36.111 h 1.15 l 0.813,0.813 5.556,5.556 1.965,1.964 H 100 V 55.556 Z m 11.112,29.167 h -5.556 v -8.334 h 5.556 z m 0,-13.89 H 79.167 V 62.5 h 5.556 z m 9.721,13.89 h -5.556 v -8.334 h 5.556 z m 0,-13.89 H 88.888 V 62.5 h 5.556 z"
           id="path4344"
           style="fill:#f8f9fe;fill-opacity:0.15;stroke-width:1.92479" />
        <path
           d="m 25.238,91.667 h 1.15 V 55.556 H 0 V 100 h 16.905 l 1.964,-1.964 5.556,-5.556 z M 11.111,84.723 H 5.556 v -8.334 h 5.556 v 8.334 z m 0,-13.89 H 5.556 V 62.5 h 5.556 v 8.333 z m 9.722,13.89 h -5.556 v -8.334 h 5.556 z m 0,-13.89 H 15.277 V 62.5 h 5.556 z"
           id="path4346"
           style="fill:#f8f9fe;fill-opacity:0.15;stroke-width:1.92479" />
      </g>
    </g>
    <path
       d="m 50.873976,15.383658 c 0,-3.906399 -3.166758,-7.0731574 -7.073159,-7.0731574 -3.9064,0 -7.073158,3.1667584 -7.073158,7.0731574 0,3.530419 2.586552,6.456602 5.967978,6.987231 v -4.942644 h -1.79592 v -2.044587 h 1.79592 v -1.558303 c 0,-1.772712 1.055972,-2.751901 2.671636,-2.751901 0.773862,0 1.58331,0.138148 1.58331,0.138148 v 1.740658 h -0.891909 c -0.878659,0 -1.152675,0.545228 -1.152675,1.104588 v 1.32681 h 1.961695 L 46.5541,17.428245 h -1.648101 v 4.942644 c 3.381425,-0.530629 5.967977,-3.456812 5.967977,-6.987231"
       style="opacity:1;fill:#f8f9fe;fill-opacity:0.15;fill-rule:nonzero;stroke:none;stroke-width:0.5;stroke-miterlimit:4;stroke-dasharray:none;stroke-opacity:0.502574"
       id="path1712" />
    <path
       class="st0"
       d="m 51.235829,65.46419 c -0.10327,-0.283029 -0.30215,-0.436017 -0.52781,-0.558408 -0.0421,-0.02295 -0.0803,-0.0459 -0.11474,-0.06119 -0.0688,-0.03442 -0.13769,-0.06884 -0.20654,-0.103268 -0.70374,-0.374821 -1.2545,-0.841436 -1.63315,-1.399844 -0.10709,-0.156813 -0.20271,-0.3251 -0.2792,-0.497212 -0.0344,-0.09179 -0.0306,-0.145339 -0.008,-0.19506 0.0229,-0.03825 0.0535,-0.06884 0.0918,-0.09562 0.12239,-0.08032 0.24478,-0.160638 0.32893,-0.214184 0.14916,-0.09944 0.27155,-0.175936 0.34805,-0.229482 0.28685,-0.20271 0.48956,-0.416894 0.61577,-0.65785 0.17976,-0.336575 0.20271,-0.73052 0.065,-1.086218 -0.19123,-0.504862 -0.6655,-0.814663 -1.24303,-0.814663 -0.12239,0 -0.24095,0.01147 -0.36334,0.03825 -0.0306,0.0076 -0.065,0.0153 -0.0956,0.02295 0.004,-0.344224 -0.004,-0.707571 -0.0344,-1.067094 -0.1071,-1.258329 -0.55076,-1.916179 -1.00973,-2.440164 -0.2945,-0.328925 -0.63872,-0.608129 -1.02502,-0.826137 -0.6961,-0.39777 -1.48781,-0.60048 -2.34837,-0.60048 -0.86056,0 -1.64845,0.20271 -2.34455,0.60048 -0.3863,0.218008 -0.73052,0.497212 -1.02502,0.826137 -0.45897,0.523985 -0.89881,1.18566 -1.00973,2.440164 -0.0306,0.359523 -0.0382,0.72287 -0.0344,1.067094 -0.0306,-0.0076 -0.0612,-0.0153 -0.0956,-0.02295 -0.11856,-0.02677 -0.24095,-0.03825 -0.35952,-0.03825 -0.57753,0 -1.05179,0.313626 -1.24303,0.814663 -0.13769,0.355698 -0.11474,0.749643 0.065,1.086218 0.12622,0.240956 0.32893,0.45514 0.61578,0.65785 0.0765,0.05355 0.19506,0.13004 0.34805,0.229482 0.0803,0.05355 0.19888,0.130041 0.31745,0.206535 0.0421,0.02677 0.0765,0.0612 0.10327,0.103267 0.0229,0.04972 0.0268,0.103267 -0.0115,0.20271 -0.0765,0.168287 -0.16829,0.332749 -0.27538,0.485738 -0.37099,0.543109 -0.90645,1.005899 -1.58725,1.376895 -0.35952,0.191236 -0.73435,0.317451 -0.89498,0.749644 -0.11857,0.3251 -0.0421,0.692272 0.26008,1.005898 v 0 c 0.11091,0.114742 0.24095,0.214184 0.38247,0.290678 0.2945,0.160638 0.60813,0.286853 0.93705,0.374822 0.0688,0.01912 0.13004,0.0459 0.18741,0.08414 0.11092,0.09562 0.0956,0.240957 0.24096,0.455141 0.0727,0.110916 0.16829,0.206534 0.27538,0.283028 0.3098,0.214184 0.65785,0.225658 1.02502,0.240957 0.33275,0.01147 0.70757,0.02677 1.13976,0.168287 0.17977,0.05737 0.36335,0.172112 0.57753,0.305977 0.51634,0.317451 1.22009,0.749643 2.40192,0.749643 1.18184,0 1.88941,-0.436017 2.40957,-0.753467 0.21418,-0.130041 0.39777,-0.244782 0.56988,-0.302153 0.42837,-0.141514 0.80702,-0.156813 1.13977,-0.168287 0.36717,-0.0153 0.71522,-0.02677 1.02502,-0.240957 0.13004,-0.09179 0.23713,-0.206534 0.31362,-0.344223 0.1071,-0.179762 0.10327,-0.305977 0.20271,-0.393946 0.0536,-0.03825 0.11474,-0.06502 0.17594,-0.08032 0.32893,-0.08797 0.6502,-0.214184 0.94853,-0.378647 0.14916,-0.08032 0.28685,-0.187411 0.40159,-0.313626 l 0.004,-0.0038 c 0.29833,-0.305977 0.37099,-0.665499 0.25243,-0.979125 z m -1.04797,0.562232 c -0.63873,0.351873 -1.0671,0.313626 -1.39602,0.52781 -0.28303,0.179761 -0.11474,0.569882 -0.31745,0.711396 -0.25243,0.172112 -0.99443,-0.01147 -1.9506,0.305977 -0.79172,0.26008 -1.29276,1.013548 -2.71555,1.013548 -1.42279,0 -1.91235,-0.749643 -2.71554,-1.013548 -0.95618,-0.317451 -1.69817,-0.13004 -1.9506,-0.305977 -0.20271,-0.141514 -0.0383,-0.531635 -0.31746,-0.711396 -0.33275,-0.214184 -0.75729,-0.175937 -1.39601,-0.52781 -0.40925,-0.225658 -0.17594,-0.363348 -0.0421,-0.428368 2.31778,-1.12064 2.68877,-2.853233 2.70407,-2.983273 0.0191,-0.156814 0.0421,-0.279204 -0.13004,-0.436017 -0.16446,-0.152989 -0.8988,-0.608129 -1.10534,-0.749644 -0.33657,-0.237132 -0.48574,-0.470439 -0.37482,-0.761117 0.0765,-0.198885 0.26391,-0.275379 0.45897,-0.275379 0.0612,0 0.12239,0.0076 0.18358,0.01912 0.371,0.08032 0.73052,0.263905 0.93706,0.317451 0.0268,0.0076 0.0497,0.01147 0.0765,0.01147 0.11092,0 0.14916,-0.05737 0.14151,-0.183586 -0.0229,-0.40542 -0.0803,-1.19331 -0.0153,-1.931479 0.088,-1.013547 0.41306,-1.518409 0.80318,-1.962075 0.18742,-0.214184 1.06327,-1.139764 2.74232,-1.139764 1.67905,0 2.55491,0.921755 2.74232,1.135939 0.39012,0.443666 0.71522,0.948528 0.80319,1.962075 0.065,0.738169 0.008,1.52606 -0.0191,1.931479 -0.008,0.133865 0.0306,0.183586 0.14152,0.183586 0.0268,0 0.0497,-0.0038 0.0765,-0.01147 0.20654,-0.04972 0.56606,-0.237132 0.93706,-0.317451 0.0612,-0.0153 0.12239,-0.01912 0.18358,-0.01912 0.19506,0 0.38247,0.07649 0.45897,0.275379 0.11091,0.290678 -0.0383,0.523986 -0.37482,0.761118 -0.20271,0.141514 -0.93706,0.596655 -1.10534,0.749643 -0.17212,0.156813 -0.14917,0.279204 -0.13004,0.436017 0.0153,0.13004 0.38629,1.862634 2.70407,2.983274 0.13768,0.06502 0.36717,0.206534 -0.0382,0.432192 z"
       id="path3700"
       style="opacity:1;fill:#f8f9fe;fill-opacity:0.15;stroke-width:0.264584" />
    <path
       d="m 41.853152,88.555374 v -5.663109 l 4.97736,2.83169 z m 11.07161,-7.445029 c -0.219,-0.824728 -0.86433,-1.474167 -1.68365,-1.694578 -1.48509,-0.40057 -7.4403,-0.40057 -7.4403,-0.40057 0,0 -5.95517,0 -7.44031,0.40057 -0.81935,0.220411 -1.46468,0.86985 -1.68367,1.694578 -0.39794,1.494758 -0.39794,4.61348 -0.39794,4.61348 0,0 0,3.118679 0.39794,4.613491 0.21899,0.824717 0.86432,1.474149 1.68367,1.694657 1.48514,0.40048 7.44031,0.40048 7.44031,0.40048 0,0 5.95521,0 7.4403,-0.40048 0.81932,-0.220508 1.46465,-0.86994 1.68365,-1.694657 0.39798,-1.494812 0.39798,-4.613491 0.39798,-4.613491 0,0 0,-3.118722 -0.39798,-4.61348"
       style="opacity:1;fill:#f8f9fe;fill-opacity:0.15;fill-rule:nonzero;stroke:none;stroke-width:0.0352776"
       id="path4042" />
    <g
       style="opacity:1;fill:#f8f9fe;fill-opacity:0.15;stroke-width:1.92479"
       id="g4937"
       transform="matrix(0.13746093,0,0,0.13746093,36.927771,31.504415)">
      <g
         id="g4935"
         style="fill:#f8f9fe;fill-opacity:0.15;stroke-width:1.92479">
        <polygon
           points="20.833,52.777 26.389,52.777 26.389,50.643 50,44.347 73.611,50.643 73.611,52.777 79.167,52.777 79.167,41.667 20.833,41.667 "
           id="polygon4923"
           style="fill:#f8f9fe;fill-opacity:0.15;stroke-width:1.92479" />
        <path
           d="M 70.833,91.667 V 59.724 56.946 56.945 52.778 L 50,47.223 29.167,52.778 v 4.167 10e-4 2.778 31.943 H 37.5 V 59.724 h 8.333 v 31.943 h 8.334 V 59.724 H 62.5 v 31.943 z"
           id="path4925"
           style="fill:#f8f9fe;fill-opacity:0.15;stroke-width:1.92479" />
        <path
           d="m 66.667,36.111 c 0,-10e-4 0,-10e-4 0,-10e-4 0,-8.256 -6.009,-15.092 -13.89,-16.417 v -3.721 c 0,-0.384 -0.311,-0.694 -0.694,-0.694 h -0.694 v -3.594 c 4.894,2.449 8.925,-1.771 15.278,0.768 V 2.778 C 60.313,0.239 56.282,4.459 51.389,2.01 V 1.389 C 51.389,0.621 50.768,0 50,0 49.232,0 48.611,0.621 48.611,1.389 v 13.889 h -0.694 c -0.384,0 -0.694,0.311 -0.694,0.694 v 3.721 c -7.881,1.325 -13.89,8.161 -13.89,16.417 0,0 0,0 0,10e-4 v 2.777 h 33.334 z"
           id="path4927"
           style="fill:#f8f9fe;fill-opacity:0.15;stroke-width:1.92479" />
        <polygon
           points="20.833,100 79.167,100 73.611,94.444 26.389,94.444 "
           id="polygon4929"
           style="fill:#f8f9fe;fill-opacity:0.15;stroke-width:1.92479" />
        <path
           d="m 73.611,55.556 v 36.111 h 1.15 l 0.813,0.813 5.556,5.556 1.965,1.964 H 100 V 55.556 Z m 11.112,29.167 h -5.556 v -8.334 h 5.556 z m 0,-13.89 H 79.167 V 62.5 h 5.556 z m 9.721,13.89 h -5.556 v -8.334 h 5.556 z m 0,-13.89 H 88.888 V 62.5 h 5.556 z"
           id="path4931"
           style="fill:#f8f9fe;fill-opacity:0.15;stroke-width:1.92479" />
        <path
           d="m 25.238,91.667 h 1.15 V 55.556 H 0 V 100 h 16.905 l 1.964,-1.964 5.556,-5.556 z M 11.111,84.723 H 5.556 v -8.334 h 5.556 v 8.334 z m 0,-13.89 H 5.556 V 62.5 h 5.556 v 8.333 z m 9.722,13.89 h -5.556 v -8.334 h 5.556 z m 0,-13.89 H 15.277 V 62.5 h 5.556 z"
           id="path4933"
           style="fill:#f8f9fe;fill-opacity:0.15;stroke-width:1.92479" />
      </g>
    </g>
    <g
       id="g4941"
       transform="matrix(0.06770544,0,0,0.06766528,63.765708,8.4724193)"
       style="opacity:1;fill:#f8f9fe;fill-opacity:0.15;stroke:none;stroke-width:7.38712;stroke-miterlimit:4;stroke-dasharray:none;stroke-opacity:0.502574">
	<path
   id="path4939"
   class="st0"
   d="m 221.95,51.29 c 0.15,2.17 0.15,4.34 0.15,6.53 0,66.73 -50.8,143.69 -143.69,143.69 v -0.04 C 50.97,201.51 24.1,193.65 1,178.83 c 3.99,0.48 8,0.72 12.02,0.73 22.74,0.02 44.83,-7.61 62.72,-21.66 -21.61,-0.41 -40.56,-14.5 -47.18,-35.07 7.57,1.46 15.37,1.16 22.8,-0.87 C 27.8,117.2 10.85,96.5 10.85,72.46 c 0,-0.22 0,-0.43 0,-0.64 7.02,3.91 14.88,6.08 22.92,6.32 C 11.58,63.31 4.74,33.79 18.14,10.71 c 25.64,31.55 63.47,50.73 104.08,52.76 -4.07,-17.54 1.49,-35.92 14.61,-48.25 20.34,-19.12 52.33,-18.14 71.45,2.19 11.31,-2.23 22.15,-6.38 32.07,-12.26 -3.77,11.69 -11.66,21.62 -22.2,27.93 10.01,-1.18 19.79,-3.86 29,-7.95 -6.78,10.16 -15.32,19.01 -25.2,26.16 z"
   style="fill:#f8f9fe;fill-opacity:0.15;stroke:none;stroke-width:7.38712;stroke-miterlimit:4;stroke-dasharray:none;stroke-opacity:0.502574" />

</g>
    <g
       id="g4949"
       transform="matrix(0.00310957,0,0,-0.00310957,64.332616,46.211106)"
       style="opacity:1;fill:#f8f9fe;fill-opacity:0.15;stroke-width:11.3449">
      <path
         d="m 2519.21,5038.41 c -684.18,0 -769.97,-2.9 -1038.67,-15.16 C 1212.4,5011.02 1029.27,4968.43 869.027,4906.16 703.367,4841.78 562.879,4755.64 422.824,4615.59 282.773,4475.54 196.633,4335.04 132.254,4169.38 69.9805,4009.14 27.3945,3826.01 15.1563,3557.87 2.89844,3289.17 0,3203.38 0,2519.2 0,1835.03 2.89844,1749.24 15.1563,1480.54 27.3945,1212.4 69.9805,1029.27 132.254,869.031 196.633,703.371 282.773,562.879 422.824,422.82 562.879,282.77 703.367,196.629 869.027,132.25 1029.27,69.9805 1212.4,27.3906 1480.54,15.1602 1749.24,2.90234 1835.03,0 2519.21,0 c 684.17,0 769.96,2.90234 1038.66,15.1602 268.14,12.2304 451.27,54.8203 611.51,117.0898 165.66,64.379 306.15,150.52 446.21,290.57 140.05,140.059 226.19,280.551 290.57,446.211 62.27,160.239 104.86,343.369 117.09,611.509 12.26,268.7 15.16,354.49 15.16,1038.66 0,684.18 -2.9,769.97 -15.16,1038.67 -12.23,268.14 -54.82,451.27 -117.09,611.51 -64.38,165.66 -150.52,306.16 -290.57,446.21 -140.06,140.05 -280.55,226.19 -446.21,290.57 -160.24,62.27 -343.37,104.86 -611.51,117.09 -268.7,12.26 -354.49,15.16 -1038.66,15.16 z m 0,-453.91 c 672.65,0 752.33,-2.57 1017.97,-14.69 245.62,-11.2 379.01,-52.24 467.78,-86.74 117.59,-45.7 201.51,-100.29 289.66,-188.44 88.16,-88.16 142.75,-172.08 188.45,-289.67 34.5,-88.77 75.54,-222.16 86.74,-467.78 12.12,-265.64 14.69,-345.32 14.69,-1017.98 0,-672.65 -2.57,-752.33 -14.69,-1017.97 -11.2,-245.62 -52.24,-379.01 -86.74,-467.78 -45.7,-117.591 -100.29,-201.509 -188.45,-289.661 -88.15,-88.16 -172.07,-142.75 -289.66,-188.449 -88.77,-34.5 -222.16,-75.539 -467.78,-86.738 -265.6,-12.122 -345.27,-14.692 -1017.97,-14.692 -672.71,0 -752.37,2.57 -1017.98,14.692 -245.62,11.199 -379.01,52.238 -467.78,86.738 -117.591,45.699 -201.509,100.289 -289.661,188.449 -88.152,88.152 -142.75,172.07 -188.449,289.661 -34.5,88.77 -75.535,222.16 -86.742,467.78 -12.121,265.64 -14.688,345.32 -14.688,1017.97 0,672.66 2.567,752.34 14.688,1017.98 11.207,245.62 52.242,379.01 86.742,467.78 45.699,117.59 100.293,201.51 188.445,289.66 88.156,88.16 172.074,142.75 289.665,188.45 88.77,34.5 222.16,75.54 467.78,86.74 265.64,12.12 345.32,14.69 1017.98,14.69"
         style="fill:#f8f9fe;fill-opacity:0.15;fill-rule:nonzero;stroke:none;stroke-width:27.5057"
         id="path4943" />
      <path
         d="m 2519.21,1679.47 c -463.78,0 -839.74,375.96 -839.74,839.73 0,463.78 375.96,839.74 839.74,839.74 463.77,0 839.73,-375.96 839.73,-839.74 0,-463.77 -375.96,-839.73 -839.73,-839.73 z m 0,2133.38 c -714.47,0 -1293.65,-579.18 -1293.65,-1293.65 0,-714.46 579.18,-1293.64 1293.65,-1293.64 714.46,0 1293.64,579.18 1293.64,1293.64 0,714.47 -579.18,1293.65 -1293.64,1293.65"
         style="fill:#f8f9fe;fill-opacity:0.15;fill-rule:nonzero;stroke:none;stroke-width:27.5057"
         id="path4945" />
      <path
         d="m 4166.27,3863.96 c 0,-166.96 -135.35,-302.3 -302.31,-302.3 -166.95,0 -302.3,135.34 -302.3,302.3 0,166.96 135.35,302.31 302.3,302.31 166.96,0 302.31,-135.35 302.31,-302.31"
         style="fill:#f8f9fe;fill-opacity:0.15;fill-rule:nonzero;stroke:none;stroke-width:27.5057"
         id="path4947" />
    </g>
    <g
       style="opacity:1;fill:#f8f9fe;fill-opacity:0.15;stroke-width:1.92479"
       id="g4967"
       transform="matrix(0.13746093,0,0,0.13746093,64.307564,55.177593)">
      <g
         id="g4965"
         style="fill:#f8f9fe;fill-opacity:0.15;stroke-width:1.92479">
        <polygon
           points="50,44.347 73.611,50.643 73.611,52.777 79.167,52.777 79.167,41.667 20.833,41.667 20.833,52.777 26.389,52.777 26.389,50.643 "
           id="polygon4953"
           style="fill:#f8f9fe;fill-opacity:0.15;stroke-width:1.92479" />
        <path
           d="M 70.833,91.667 V 59.724 56.946 56.945 52.778 L 50,47.223 29.167,52.778 v 4.167 10e-4 2.778 31.943 H 37.5 V 59.724 h 8.333 v 31.943 h 8.334 V 59.724 H 62.5 v 31.943 z"
           id="path4955"
           style="fill:#f8f9fe;fill-opacity:0.15;stroke-width:1.92479" />
        <path
           d="m 66.667,36.111 c 0,-10e-4 0,-10e-4 0,-10e-4 0,-8.256 -6.009,-15.092 -13.89,-16.417 v -3.721 c 0,-0.384 -0.311,-0.694 -0.694,-0.694 h -0.694 v -3.594 c 4.894,2.449 8.925,-1.771 15.278,0.768 V 2.778 C 60.313,0.239 56.282,4.459 51.389,2.01 V 1.389 C 51.389,0.621 50.768,0 50,0 49.232,0 48.611,0.621 48.611,1.389 v 13.889 h -0.694 c -0.384,0 -0.694,0.311 -0.694,0.694 v 3.721 c -7.881,1.325 -13.89,8.161 -13.89,16.417 0,0 0,0 0,10e-4 v 2.777 h 33.334 z"
           id="path4957"
           style="fill:#f8f9fe;fill-opacity:0.15;stroke-width:1.92479" />
        <polygon
           points="26.389,94.444 20.833,100 79.167,100 73.611,94.444 "
           id="polygon4959"
           style="fill:#f8f9fe;fill-opacity:0.15;stroke-width:1.92479" />
        <path
           d="m 73.611,55.556 v 36.111 h 1.15 l 0.813,0.813 5.556,5.556 1.965,1.964 H 100 V 55.556 Z m 11.112,29.167 h -5.556 v -8.334 h 5.556 z m 0,-13.89 H 79.167 V 62.5 h 5.556 z m 9.721,13.89 h -5.556 v -8.334 h 5.556 z m 0,-13.89 H 88.888 V 62.5 h 5.556 z"
           id="path4961"
           style="fill:#f8f9fe;fill-opacity:0.15;stroke-width:1.92479" />
        <path
           d="m 25.238,91.667 h 1.15 V 55.556 H 0 V 100 h 16.905 l 1.964,-1.964 5.556,-5.556 z M 11.111,84.723 H 5.556 v -8.334 h 5.556 v 8.334 z m 0,-13.89 H 5.556 V 62.5 h 5.556 v 8.333 z m 9.722,13.89 h -5.556 v -8.334 h 5.556 z m 0,-13.89 H 15.277 V 62.5 h 5.556 z"
           id="path4963"
           style="fill:#f8f9fe;fill-opacity:0.15;stroke-width:1.92479" />
      </g>
    </g>
    <path
       d="m 78.253767,85.766788 c 0,-3.906399 -3.16676,-7.073157 -7.07316,-7.073157 -3.906396,0 -7.073154,3.166758 -7.073154,7.073157 0,3.530419 2.586552,6.456602 5.967974,6.987231 v -4.942644 h -1.795916 v -2.044587 h 1.795916 v -1.558303 c 0,-1.772712 1.05598,-2.751901 2.67164,-2.751901 0.77386,0 1.58331,0.138148 1.58331,0.138148 v 1.740658 h -0.89191 c -0.87866,0 -1.15267,0.545228 -1.15267,1.104588 v 1.32681 h 1.96169 l -0.31359,2.044587 h -1.6481 v 4.942644 c 3.38142,-0.530629 5.96797,-3.456812 5.96797,-6.987231"
       style="opacity:1;fill:#f8f9fe;fill-opacity:0.15;fill-rule:nonzero;stroke:none;stroke-width:0.5;stroke-miterlimit:4;stroke-dasharray:none;stroke-opacity:0.502574"
       id="path4969" />
    <path
       d="m 105.60964,20.420357 h -2.13737 v -3.347209 c 0,-0.798854 -0.0152,-1.825274 -1.11188,-1.825274 -1.11284,0 -1.2828,0.868971 -1.2828,1.766736 v 3.405748 h -2.137052 v -6.883507 h 2.050342 v 0.940065 h 0.0297 c 0.28584,-0.540914 0.9839,-1.111556 2.02438,-1.111556 2.16493,0 2.56465,1.425494 2.56465,3.279561 z M 96.528064,12.59526 c -0.68708,0 -1.24114,-0.555577 -1.24114,-1.240817 0,-0.683953 0.55406,-1.239933 1.24114,-1.239933 0.684594,0 1.240174,0.555981 1.240174,1.239933 0,0.68524 -0.55558,1.240817 -1.240174,1.240817 z m 1.070204,7.825097 H 95.456574 V 13.53685 h 2.141694 z M 106.67552,8.1286795 H 94.38284 c -0.585949,0 -1.063316,0.465746 -1.063316,1.039274 V 21.512826 c 0,0.575037 0.477367,1.039884 1.063316,1.039884 h 12.29268 c 0.58851,0 1.06836,-0.464848 1.06836,-1.039884 V 9.1679535 c 0,-0.573528 -0.47985,-1.039274 -1.06836,-1.039274"
       style="opacity:1;fill:#f8f9fe;fill-opacity:0.15;fill-rule:nonzero;stroke:none;stroke-width:0.0352779"
       id="path4951" />
    <path
       class="st0"
       d="m 107.96672,41.791012 c -0.10327,-0.283029 -0.30215,-0.436017 -0.52781,-0.558408 -0.0421,-0.02295 -0.0803,-0.0459 -0.11474,-0.06119 -0.0688,-0.03442 -0.13769,-0.06884 -0.20654,-0.103268 -0.70374,-0.374821 -1.2545,-0.841436 -1.63315,-1.399844 -0.10709,-0.156813 -0.20271,-0.3251 -0.2792,-0.497212 -0.0344,-0.09179 -0.0306,-0.145339 -0.008,-0.19506 0.0229,-0.03825 0.0535,-0.06884 0.0918,-0.09562 0.12239,-0.08032 0.24478,-0.160638 0.32893,-0.214184 0.14916,-0.09944 0.27155,-0.175936 0.34805,-0.229482 0.28685,-0.20271 0.48956,-0.416894 0.61577,-0.65785 0.17976,-0.336575 0.20271,-0.73052 0.065,-1.086218 -0.19123,-0.504862 -0.6655,-0.814663 -1.24303,-0.814663 -0.12239,0 -0.24095,0.01147 -0.36334,0.03825 -0.0306,0.0076 -0.065,0.0153 -0.0956,0.02295 0.004,-0.344224 -0.004,-0.707571 -0.0344,-1.067094 -0.1071,-1.258329 -0.55076,-1.916179 -1.00973,-2.440164 -0.2945,-0.328925 -0.63872,-0.608129 -1.02502,-0.826137 -0.6961,-0.39777 -1.48781,-0.60048 -2.34837,-0.60048 -0.860568,0 -1.648458,0.20271 -2.344558,0.60048 -0.3863,0.218008 -0.73052,0.497212 -1.02502,0.826137 -0.45897,0.523985 -0.89881,1.18566 -1.00973,2.440164 -0.0306,0.359523 -0.0382,0.72287 -0.0344,1.067094 -0.0306,-0.0076 -0.0612,-0.0153 -0.0956,-0.02295 -0.11856,-0.02677 -0.24095,-0.03825 -0.35952,-0.03825 -0.57753,0 -1.05179,0.313626 -1.24303,0.814663 -0.13769,0.355698 -0.11474,0.749643 0.065,1.086218 0.12622,0.240956 0.32893,0.45514 0.61578,0.65785 0.0765,0.05355 0.19506,0.13004 0.34805,0.229482 0.0803,0.05355 0.19888,0.130041 0.31745,0.206535 0.0421,0.02677 0.0765,0.0612 0.10327,0.103267 0.0229,0.04972 0.0268,0.103267 -0.0115,0.20271 -0.0765,0.168287 -0.16829,0.332749 -0.27538,0.485738 -0.37099,0.543109 -0.90645,1.005899 -1.58725,1.376895 -0.35952,0.191236 -0.73435,0.317451 -0.89498,0.749644 -0.11857,0.3251 -0.0421,0.692272 0.26008,1.005898 v 0 c 0.11091,0.114742 0.24095,0.214184 0.38247,0.290678 0.2945,0.160638 0.60813,0.286853 0.93705,0.374822 0.0688,0.01912 0.13004,0.0459 0.18741,0.08414 0.11092,0.09562 0.0956,0.240957 0.24096,0.455141 0.0727,0.110916 0.16829,0.206534 0.27538,0.283028 0.3098,0.214184 0.65785,0.225658 1.02502,0.240957 0.33275,0.01147 0.70757,0.02677 1.13976,0.168287 0.17977,0.05737 0.36335,0.172112 0.57753,0.305977 0.51634,0.317451 1.22009,0.749643 2.401928,0.749643 1.18184,0 1.88941,-0.436017 2.40957,-0.753467 0.21418,-0.130041 0.39777,-0.244782 0.56988,-0.302153 0.42837,-0.141514 0.80702,-0.156813 1.13977,-0.168287 0.36717,-0.0153 0.71522,-0.02677 1.02502,-0.240957 0.13004,-0.09179 0.23713,-0.206534 0.31362,-0.344223 0.1071,-0.179762 0.10327,-0.305977 0.20271,-0.393946 0.0536,-0.03825 0.11474,-0.06502 0.17594,-0.08032 0.32893,-0.08797 0.6502,-0.214184 0.94853,-0.378647 0.14916,-0.08032 0.28685,-0.187411 0.40159,-0.313626 l 0.004,-0.0038 c 0.29833,-0.305977 0.37099,-0.665499 0.25243,-0.979125 z m -1.04797,0.562232 c -0.63873,0.351873 -1.0671,0.313626 -1.39602,0.52781 -0.28303,0.179761 -0.11474,0.569882 -0.31745,0.711396 -0.25243,0.172112 -0.99443,-0.01147 -1.9506,0.305977 -0.79172,0.26008 -1.29276,1.013548 -2.71555,1.013548 -1.422798,0 -1.912358,-0.749643 -2.715548,-1.013548 -0.95618,-0.317451 -1.69817,-0.13004 -1.9506,-0.305977 -0.20271,-0.141514 -0.0383,-0.531635 -0.31746,-0.711396 -0.33275,-0.214184 -0.75729,-0.175937 -1.39601,-0.52781 -0.40925,-0.225658 -0.17594,-0.363348 -0.0421,-0.428368 2.31778,-1.12064 2.68877,-2.853233 2.70407,-2.983273 0.0191,-0.156814 0.0421,-0.279204 -0.13004,-0.436017 -0.16446,-0.152989 -0.8988,-0.608129 -1.10534,-0.749644 -0.33657,-0.237132 -0.48574,-0.470439 -0.37482,-0.761117 0.0765,-0.198885 0.26391,-0.275379 0.45897,-0.275379 0.0612,0 0.12239,0.0076 0.18358,0.01912 0.371,0.08032 0.73052,0.263905 0.93706,0.317451 0.0268,0.0076 0.0497,0.01147 0.0765,0.01147 0.11092,0 0.14916,-0.05737 0.14151,-0.183586 -0.0229,-0.40542 -0.0803,-1.19331 -0.0153,-1.931479 0.088,-1.013547 0.41306,-1.518409 0.80318,-1.962075 0.18742,-0.214184 1.06327,-1.139764 2.742328,-1.139764 1.67905,0 2.55491,0.921755 2.74232,1.135939 0.39012,0.443666 0.71522,0.948528 0.80319,1.962075 0.065,0.738169 0.008,1.52606 -0.0191,1.931479 -0.008,0.133865 0.0306,0.183586 0.14152,0.183586 0.0268,0 0.0497,-0.0038 0.0765,-0.01147 0.20654,-0.04972 0.56606,-0.237132 0.93706,-0.317451 0.0612,-0.0153 0.12239,-0.01912 0.18358,-0.01912 0.19506,0 0.38247,0.07649 0.45897,0.275379 0.11091,0.290678 -0.0383,0.523986 -0.37482,0.761118 -0.20271,0.141514 -0.93706,0.596655 -1.10534,0.749643 -0.17212,0.156813 -0.14917,0.279204 -0.13004,0.436017 0.0153,0.13004 0.38629,1.862634 2.70407,2.983274 0.13768,0.06502 0.36717,0.206534 -0.0382,0.432192 z"
       id="path4971"
       style="opacity:1;fill:#f8f9fe;fill-opacity:0.15;stroke-width:0.264584" />
    <path
       d="M 98.584036,64.882188 V 59.21908 l 4.977364,2.831689 z M 109.65565,57.43716 c -0.219,-0.824729 -0.86433,-1.474168 -1.68365,-1.694579 -1.48509,-0.40057 -7.4403,-0.40057 -7.4403,-0.40057 0,0 -5.955174,0 -7.440313,0.40057 -0.81935,0.220411 -1.46468,0.86985 -1.68367,1.694579 -0.397941,1.494757 -0.397941,4.61348 -0.397941,4.61348 0,0 0,3.118679 0.397941,4.61349 0.21899,0.824718 0.86432,1.474149 1.68367,1.694658 1.48514,0.40048 7.440313,0.40048 7.440313,0.40048 0,0 5.95521,0 7.4403,-0.40048 0.81932,-0.220508 1.46465,-0.86994 1.68365,-1.694658 0.39798,-1.494811 0.39798,-4.61349 0.39798,-4.61349 0,0 0,-3.118722 -0.39798,-4.61348"
       style="opacity:1;fill:#f8f9fe;fill-opacity:0.15;fill-rule:nonzero;stroke:none;stroke-width:0.0352776"
       id="path4973" />
    <g
       style="opacity:1;fill:#f8f9fe;fill-opacity:0.15;stroke-width:1.92479"
       id="g4989"
       transform="matrix(0.13746093,0,0,0.13746093,93.658656,78.850779)">
      <g
         id="g4987"
         style="fill:#f8f9fe;fill-opacity:0.15;stroke-width:1.92479">
        <polygon
           points="73.611,52.777 79.167,52.777 79.167,41.667 20.833,41.667 20.833,52.777 26.389,52.777 26.389,50.643 50,44.347 73.611,50.643 "
           id="polygon4975"
           style="fill:#f8f9fe;fill-opacity:0.15;stroke-width:1.92479" />
        <path
           d="M 70.833,91.667 V 59.724 56.946 56.945 52.778 L 50,47.223 29.167,52.778 v 4.167 10e-4 2.778 31.943 H 37.5 V 59.724 h 8.333 v 31.943 h 8.334 V 59.724 H 62.5 v 31.943 z"
           id="path4977"
           style="fill:#f8f9fe;fill-opacity:0.15;stroke-width:1.92479" />
        <path
           d="m 66.667,36.111 c 0,-10e-4 0,-10e-4 0,-10e-4 0,-8.256 -6.009,-15.092 -13.89,-16.417 v -3.721 c 0,-0.384 -0.311,-0.694 -0.694,-0.694 h -0.694 v -3.594 c 4.894,2.449 8.925,-1.771 15.278,0.768 V 2.778 C 60.313,0.239 56.282,4.459 51.389,2.01 V 1.389 C 51.389,0.621 50.768,0 50,0 49.232,0 48.611,0.621 48.611,1.389 v 13.889 h -0.694 c -0.384,0 -0.694,0.311 -0.694,0.694 v 3.721 c -7.881,1.325 -13.89,8.161 -13.89,16.417 0,0 0,0 0,10e-4 v 2.777 h 33.334 z"
           id="path4979"
           style="fill:#f8f9fe;fill-opacity:0.15;stroke-width:1.92479" />
        <polygon
           points="79.167,100 73.611,94.444 26.389,94.444 20.833,100 "
           id="polygon4981"
           style="fill:#f8f9fe;fill-opacity:0.15;stroke-width:1.92479" />
        <path
           d="m 73.611,55.556 v 36.111 h 1.15 l 0.813,0.813 5.556,5.556 1.965,1.964 H 100 V 55.556 Z m 11.112,29.167 h -5.556 v -8.334 h 5.556 z m 0,-13.89 H 79.167 V 62.5 h 5.556 z m 9.721,13.89 h -5.556 v -8.334 h 5.556 z m 0,-13.89 H 88.888 V 62.5 h 5.556 z"
           id="path4983"
           style="fill:#f8f9fe;fill-opacity:0.15;stroke-width:1.92479" />
        <path
           d="m 25.238,91.667 h 1.15 V 55.556 H 0 V 100 h 16.905 l 1.964,-1.964 5.556,-5.556 z M 11.111,84.723 H 5.556 v -8.334 h 5.556 v 8.334 z m 0,-13.89 H 5.556 V 62.5 h 5.556 v 8.333 z m 9.722,13.89 h -5.556 v -8.334 h 5.556 z m 0,-13.89 H 15.277 V 62.5 h 5.556 z"
           id="path4985"
           style="fill:#f8f9fe;fill-opacity:0.15;stroke-width:1.92479" />
      </g>
    </g>
  </g>
  <style
     type="text/css"
     id="style2577">
	.st0{fill:#FFFFFF;}
</style>
  <style
     type="text/css"
     id="style3694">
	.st0{fill:#FFFFFF;}
</style>
</svg>
